<svg version="1" xmlns="http://www.w3.org/2000/svg" width="1253.333" height="1253.333" viewBox="0 0 940.000000 940.000000"><path d="M423 32.1C364.4 37.4 310.4 54 257 83c-5.2 2.9-11.7 6.6-14.5 8.5-2.7 1.8-8.4 5.4-12.5 8.1-21.4 13.7-43.6 31.9-66.9 54.8-15.7 15.4-39.1 41.1-39.1 42.8 0 .5.9.4 2-.2 1.6-.9 2.2-.8 2.6.4 1 2.5-.4 3.5-4 2.9-3.3-.5-3.6-.3-9.3 7.4-18.9 25.7-37.2 55.6-35.9 58.9.3.8 0 1.4-.7 1.4-1.3 0-12.2 21.6-14.7 29-.6 1.9-1.8 4.6-2.5 6-4.8 9.2-20.2 59.3-20.9 68.1-.2 2-.6 4.1-.9 4.6-.9 1.4-3.5 16.7-5.2 29.8-3 24.5-4.5 69.2-2.5 75.5.4 1.4.8 1.9.9 1.2.1-.6.6-1.2 1.1-1.2 1.7 0 1.1 2.6-1.1 4.6-2 1.8-2.1 2.5-1.4 13.4.4 6.3 1.1 12.3 1.6 13.2.6 1.2.6 1.8 0 1.8s-.9.6-.6 1.2c.2.7.6 4.9.9 9.3 1.3 19.9 5.1 40.5 12.3 67 4.6 17.2 11.8 39.2 13.4 40.9.5.5 1.5.3 2.6-.5 1.7-1.3 1.7-1.3 0 .7-2 2.4-2.1 1.9 3.9 15.9 5.6 13.4 14.4 31.1 20.7 41.7 4.1 6.9 5.6 8.7 6.9 8.2 1-.3 1.8 0 1.8.6s-.4.8-1 .5c-.5-.3-1 .1-1 .9 0 .9.8 1.6 1.8 1.6 2.3.1 5.2 2.4 5.2 4.1 0 .8-.8.5-1.9-1-1.1-1.5-2.1-2-2.5-1.3-.7 1.2 2.1 6 8.8 15l3.9 5.3 1.9-3.2c1-1.7 2.2-2.9 2.5-2.5.3.3-.1 1.4-1 2.4-1 1-1.7 2.8-1.7 3.9 0 1.9 5.5 10.5 7.2 11.1.4.2.8.8.8 1.4 0 5.1 69.9 76.8 74.9 76.8.6 0 1.1-.7 1.1-1.5s.5-1.5 1-1.5c.7 0 .7.8-.1 2.2-1.1 2-.8 2.6 3.2 6 10.2 8.8 48.8 34.9 51.3 34.7.5 0 1.2.4 1.5 1 .9 1.3 29.9 17.1 31.6 17.1.3 0 .5-.7.5-1.5s.9-1.5 2-1.5c1.6 0 2 .6 1.8 2.5-.3 2.3.5 2.9 8.2 6.1 15 6.3 28.2 11.2 38 13.9 5.2 1.5 10.4 3.1 11.5 3.6 3.2 1.3 20.2 5.7 30.6 7.8 8.2 1.7 14.1 2.6 36.9 5.6 18.5 2.5 39 3.2 39 1.4 0-.7-1-.9-2.5-.7-2.8.6-3.3-.3-2.7-4.4.4-2.8.5-2.8 1.8-.9.8 1.1 2.1 1.8 2.9 1.5 1.1-.5 1.5.1 1.5 1.9 0 1.4.5 2.9 1 3.2 2 1.3 55.5.4 70-1.1 22.3-2.3 40.3-5.1 53.7-8.4 17.6-4.3 44.5-12.4 54.3-16.4 7.9-3.2 8.5-3.7 8.3-6.2-.1-1.4-.9-3.4-1.8-4.4-1.9-2.1-1.9-3 .1-3 .8 0 1.2.4.9 1-.3.5.5 2.1 1.9 3.5 1.5 1.4 2.6 3 2.6 3.4 0 .5 3.3-.5 7.4-2.2 6.1-2.5 7.5-3.5 7.9-5.6.3-1.4.1-3.1-.5-3.8-.5-.7-.7-1.6-.4-2.1.3-.5-.5-2.6-1.9-4.6-1.3-2-2.2-4.2-1.9-5 .3-.8-.2-2.6-1.1-4-1-1.4-1.4-3.3-1.1-4.2.3-.9.4-2 .1-2.4-.6-.9-23.1 8.4-25.6 10.6-.9.8-1.8 1.2-2.1.9-.3-.3-4.5 1-9.4 2.9s-12.9 4.7-17.9 6.1c-4.9 1.5-10.5 3.1-12.2 3.7-2.4.7-3.3 1.6-3.3 3.1-.1 2.1-.2 2.1-1.4.4-1.2-1.6-1.8-1.6-7.2-.3-3.3.8-7.1 1.7-8.5 2-1.4.3-3.1 1.6-3.7 2.8-.9 2-1.1 2-1.1.4-.1-1.6-.6-1.7-3.3-1.2-8.2 1.6-20.2 3.6-26 4.2-3.4.3-6.6.8-7 1-.4.3-4.4.7-9 1-4.6.3-11.4.9-15.3 1.2-3.8.4-14.8.7-24.2.7-14.7 0-17.3.2-17.3 1.5-.1 1.2-.3 1.2-1.4-.2-1-1.4-2.8-1.8-7-1.8-4.9 0-5.6.2-5.6 1.9 0 2.6-1.6 3.5-2.4 1.4-.4-.9-.1-2 .6-2.4 1.8-1.2-.4-1.7-9.2-2.3-15-1-40.8-5.1-54-8.6-1.9-.5-4.6-1.1-6-1.4-1.4-.3-8.8-2.3-16.5-4.5-11.6-3.4-18.9-5.9-37.2-12.8-.7-.3-1.3.7-1.5 2.3-.2 1.5-.9 2.9-1.6 3-.7.1-.8 0-.2-.3.5-.2 1-1.7 1-3.3 0-2.3-.7-3-4.2-4.5-30.7-12-73.4-37.4-99.3-59.1-2.7-2.2-5.6-3.9-6.2-3.7-.7.3-1.3-.1-1.3-.9 0-.7-4.8-5.6-10.6-10.8-22.5-20.1-43.4-43.8-61.8-70-8.7-12.4-11.3-14.8-10.9-10 .1 1.4-.1 1.9-.3 1.2-.3-.6-1-1-1.5-.6-1.3.8-1.1-.3.7-3.7 1.5-2.9 1.4-3.3-.9-6.7-5.6-8.6-7.8-12.6-16-28.2C92 637.4 77.6 601.1 74 584.8c-.8-3.7-1.9-6-3-6.3-1.1-.4-1.5-1.5-1.4-3.8.2-1.7-1.2-10.6-3.1-19.7-3.1-15.2-6.6-37.7-6.9-44.3 0-1.5-.7-3.2-1.5-3.7-1.1-.6-1.2-1.2-.3-2.2 1.8-2.2.4-47.1-1.5-46.4-.7.3-1.3.2-1.3-.2 0-1 2.4-7.5 3.3-8.8.4-.7.7-2.9.6-5-.1-6.2 2.9-32.7 5.1-45.3 2.1-11.6 5.7-26.6 11.1-45.8 14.8-53.5 50.4-117.3 88.2-158.2 3.3-3.5 6.6-8 7.5-10 .8-2 1.7-3 1.9-2.4.3.8 6.5-4.4 14.6-12.1 22.1-20.8 43.7-37.3 69.8-53.4 15.2-9.4 44-23.8 58.4-29.3 10.6-4.1 13.4-6 10.3-7.2-.9-.4-.8-.6.2-.6.9-.1 2.1.4 2.6.9.7.7 3.5.2 8.5-1.5 12.3-4.3 34.6-10.3 49.9-13.5 23.5-5 41.6-7.2 72-8.5 16.9-.8 60.1 1.3 66.3 3.1 2.1.7 5.1-2.1 4.3-4.1-.3-.8.2-2.2 1.1-3.1 1.1-1.1 1.8-1.3 2.1-.5.6 1.7 2.2.3 2.2-2 0-1 .6-2 1.3-2 .6-.1 1.9-.3 2.7-.4.8-.1 2-.3 2.6-.4.7 0 1.4-1 1.7-2.1.7-2.5 2.9-2.6 4.4-.1 1 1.5.9 2.2-.2 3.1-1.2 1-1.5.9-1.5-.4 0-.9-.4-1.6-1-1.6-.5 0-1 .7-1 1.5 0 2.2-3.7 5.5-5.4 4.9-1-.4-2.9.9-5 3.2-1.9 2.1-3.4 3.9-3.2 4.1.1.1 6.5 1.4 14.2 2.8 43.6 8.1 86.8 23.4 126.8 44.9 3.5 1.8 5.2 2.3 5.7 1.5.9-1.6 2.9-.2 2.9 2.1 0 1.2 1.9 2.9 5.5 4.9 6.7 3.8 7.7 3.9 6.9.5-.6-2.2-.4-2.5.7-1.8.8.5 1.7.9 2.1.9 1.6 0 1.9 1.5.4 2.1-2.7 1.1-1.8 3.3 2.7 6 6.3 4 24.6 17.2 29.2 21.1 2.2 1.9 4.5 3.7 5 4.1 6.2 4.3 42.6 38.7 45.9 43.4.7 1 2.8 3.5 4.7 5.6 26.1 28.8 54 73.4 69.9 111.4 3.6 8.7 4.8 10.8 6.5 10.8 1.6 0 1.7.2.5 1-1.2.7-.9 2.4 2 11.4 1.9 5.8 3.9 10.6 4.6 10.6.6 0 .9 1 .7 2.2-.2 1.3 1.4 8.7 3.6 16.5 4.1 14.5 8.4 34.5 9.6 44.3 1 8.6 1.6 11.1 2.6 10.4.5-.3.9-.1.9.5 0 .5-.5 1.1-1 1.3-.7.2-.7 3.5 0 10.3 2.3 22.3 2.5 27 1.8 51-.7 28-.6 26.3-4.4 55-2.6 19.4-12.6 57.7-20.4 78.1-2.3 6-4.7 12.9-5.2 15.3-.6 2.3-1.9 5.2-2.9 6.2s-1.9 2.4-1.9 3c0 1.1-12.4 26.3-16.9 34.2-1.2 2.1-1.8 4.4-1.5 5 .4.7.4.9-.1.5-.4-.4-4.7 5.6-9.6 13.2-4.8 7.7-10.8 16.7-13.3 20-2.5 3.3-4.6 6.4-4.6 6.9s-.3 1.1-.7 1.3c-.5.1-2.8 3-5.3 6.2-6.6 8.7-18.1 21.8-28.4 32.4-9.5 9.8-10.6 11.2-8.4 11.2 1.8 0 10.6 9.2 12.9 13.5 1.9 3.5 1.9 3.5-.1 2.3-1.1-.7-2.3-2.1-2.6-3-.6-1.9-2.4-2.5-2.4-.7 0 .5-.4.7-1 .4-.5-.3-1-1.4-1-2.3-.1-2-5.7-7.8-6.7-6.9-.3.4-1.2.2-1.9-.4-1.1-.9-3.3.6-10.1 6.8-4.9 4.4-11.9 10.4-15.8 13.5-3.8 3-8.5 6.9-10.4 8.7-1.8 1.7-3.7 3.1-4.2 3.1-.6 0-4.7 2.7-9.2 5.9-4.5 3.3-9.2 6.7-10.5 7.6-1.7 1.2-2.1 2.2-1.6 3.8.6 2.1.6 2.1-.9.3-1.4-1.9-1.8-1.7-11.3 4.1-5.5 3.4-14.6 8.6-20.4 11.6-9.9 5.2-10.5 5.6-10.2 8.3.2 1.6.7 3.3 1.1 3.9.4.5 1.8 4.4 3 8.5 2.9 9.6 4.1 12 5.9 12 1.7 0 24.6-12 25-13.2.2-.4 1-.8 1.8-.8 2.1 0 25.9-15.2 40-25.5 30.8-22.6 73.6-64.8 96.3-95 10.5-14.1 14.5-19.7 17.1-24 1.3-2.2 4.4-7.1 6.8-10.9 13.2-20.5 30.6-57.7 39.3-84 6.6-20.2 12.2-40.4 11.6-42-.3-.8-.2-1.7.3-2.2 2.1-2.2 7-34.5 9.1-59.9.7-9.2 1-27 .6-51-.4-32.3-.8-39.5-3.1-56.4-2.8-20.8-6.3-39.4-9.7-50.6-1.1-3.9-3-10.6-4.3-14.9-1.9-7-2.6-8.2-5.4-9.5-3.6-1.8-4.1-3.1-1.2-3.1 2.7 0 2.6-1.2-1.9-13.1-16.6-44.7-42.6-88.9-73.9-125.8-15.3-18-44.1-46.4-46.4-45.8-1.3.4-1.8-.1-1.8-1.5 0-2.1-4.3-6.3-17.4-16.9-16.9-13.7-20.9-16.4-22.6-15.4-1.1.7-4.3-2.3-5.3-4.8-.3-.9-1.2-1.7-1.8-1.7-.7 0-1.7-.7-2.4-1.7-.7-.9-1.7-1.3-2.3-.9-1.7 1-1.5 2.6.3 2.6.8 0 1.5.4 1.5.9 0 1.7-2 2.3-3.5 1.1-.8-.6-1.9-.9-2.5-.5-.5.3-1 0-1-.7 0-1.1-.2-1.1-.9 0-.6 1-1 1-2-.2-1.8-2.2.3-5.9 3-5.1 8.7 2.8-13.3-11-35.6-22.2-22.5-11.4-53.3-23.7-55.2-22.1-.7.5-1.6.7-2.2.4-.5-.3-1.8.6-2.9 2.1l-2.1 2.8-1-2.9c-1-2.3-.9-3.1.5-4.1 2.2-1.6 1.7-1.8-10.6-5-51.7-13.4-62.2-14.7-121.5-15.1-24.2-.1-48.3.2-53.5.7zm95.7 18.1c-.3.8-.6.5-.6-.6-.1-1.1.2-1.7.5-1.3.3.3.4 1.2.1 1.9zM280.3 93c-.7 2.8-1.3 2.5-1.3-.6 0-1.4.4-2.3.9-2 .5.3.7 1.5.4 2.6zm407.4 8.2c-.3.8-.6.5-.6-.6-.1-1.1.2-1.7.5-1.3.3.3.4 1.2.1 1.9zm15.3 2.2c0 1.9-5.7 6.9-6.4 5.7-.4-.6 0-1.1 1-1.1 1.2 0 1.5-.6 1.1-2.2-.4-1.2-.2-2.8.4-3.4 1.2-1.5 3.9-.7 3.9 1zm17.7 22.3c-.3 1-.5.4-.5-1.2 0-1.7.2-2.4.5-1.8.2.7.2 2.1 0 3zm43.8 22.9c-1.5 2.8-1.6 2.8-1.1.4.3-1.4.6-3.2.6-4 0-1 .3-1.1 1.1-.3s.6 1.9-.6 3.9zm-14.8 3.1c-.3 1-.5.2-.5-1.7s.2-2.7.5-1.8c.2 1 .2 2.6 0 3.5zm14 10.5c-.3.8-.6.5-.6-.6-.1-1.1.2-1.7.5-1.3.3.3.4 1.2.1 1.9zM148 180.4c0 .3-.4.8-1 1.1-.5.3-1 .1-1-.4 0-.6.5-1.1 1-1.1.6 0 1 .2 1 .4zm10 4c0 .2-.8 1-1.7 1.7-1.6 1.3-1.7 1.2-.4-.4 1.3-1.6 2.1-2.1 2.1-1.3zm623 1.6c0 .5-.2 1-.4 1-.3 0-.8-.5-1.1-1-.3-.6-.1-1 .4-1 .6 0 1.1.4 1.1 1zm-647.5 13c.3.5.1 1-.4 1-.6 0-1.1-.5-1.1-1 0-.6.2-1 .4-1 .3 0 .8.4 1.1 1zm3.5 1c0 .5-.2 1-.4 1-.3 0-.8-.5-1.1-1-.3-.6-.1-1 .4-1 .6 0 1.1.4 1.1 1zm678.4 26.9c.7 1.1-2.2 2.3-3.5 1.5-.5-.3-.9-.9-.9-1.5 0-1.2 3.7-1.2 4.4 0zm9.1 7c.3.5-.6.8-2 .7-3.5-.4-4.4-1.6-1.2-1.6 1.4 0 2.8.4 3.2.9zm47.5 87.5c0 .2-.7.7-1.6 1-.8.3-1.2.2-.9-.4.6-1 2.5-1.4 2.5-.6zm9.4 2.6c1.6 1.6-4.6 1.1-6.8-.5-1.7-1.3-1.6-1.4 2-1 2.1.3 4.3 1 4.8 1.5zM66 360.5c0 .2-1 1-2.2 1.6-2.1 1.1-2.2 1.1-.9-.4 1.3-1.6 3.1-2.3 3.1-1.2zm-17 7.9c-1 1 .9 5.6 2.3 5.6.5 0 1.7-1 2.6-2.1 1.3-1.6 2.3-2 4.1-1.4l2.4.8-3 1.4c-1.6.8-4.1 2.8-5.6 4.5l-2.7 3.1.4-2.6c.6-2.9-.9-4.4-2.8-2.8-.7.5-1.9.6-2.6.2-.9-.6-.7-1 .8-1.4 1.8-.4 2.1-1.3 2.1-5.3 0-4.4.1-4.6 1.4-2.8.8 1 1.1 2.3.6 2.8zM893.5 437c-.9 4.1-1.7 3.3-.9-.9.4-1.7.9-3 1.1-2.7.3.2.2 1.9-.2 3.6zM48.9 469.4c-2 1.9-4.4 4.4-5.3 5.7-1.2 1.8-1.6 2-1.6.7 0-1.9 3.1-5.5 7-8.1 3.9-2.7 3.8-1.9-.1 1.7zm2.1 4c0 .2-.7.7-1.6 1-.8.3-1.2.2-.9-.4.6-1 2.5-1.4 2.5-.6zM40.5 478c-.3.5-1.3 1-2.1 1s-1.2-.5-.9-1c.3-.6 1.3-1 2.1-1s1.2.4.9 1zm5.5 15.3c0 .5-.4.5-1 .2-.5-.3-1-1.4-1-2.3 0-1.5.2-1.5 1-.2.5.8 1 1.9 1 2.3zm-8.5 13.4l1.8 2.8-2.1-1.9c-1.2-1.1-2.2-2.3-2.2-2.8 0-1.4.7-.9 2.5 1.9zm6.5 14.9c0 .8-.4 1.2-1 .9-.5-.3-1-1-1-1.6 0-.5.5-.9 1-.9.6 0 1 .7 1 1.6zm857 33c0 .8-.4 1.2-1 .9-.5-.3-1-1-1-1.6 0-.5.5-.9 1-.9.6 0 1 .7 1 1.6zM48.3 582.3c-.3.5-1.1-.4-1.9-1.8-2-3.8-1.7-4.5.5-1.5 1.1 1.3 1.7 2.8 1.4 3.3zm847.7 6.2c-.6 1.5-1.3 2.6-1.5 2.3-.3-.2.1-1.9.8-3.7.6-1.7 1.3-2.8 1.5-2.3.1.5-.2 2.2-.8 3.7zm-22 2c0 .8-.7 1.5-1.6 1.5-1.4 0-1.4-.3-.4-1.5.7-.8 1.4-1.5 1.6-1.5.2 0 .4.7.4 1.5zm14.7 13.7c-.3.8-.6.5-.6-.6-.1-1.1.2-1.7.5-1.3.3.3.4 1.2.1 1.9zM863 616.9c0 .5.3 1.8.6 2.8.6 1.6.5 1.6-.9-.2-1.9-2.3-2.1-3.5-.7-3.5.6 0 1 .4 1 .9zm12.9 16.3c.1.5-.3.8-.9.8-.5 0-1-1.2-.9-2.8 0-2.4.1-2.5.9-.7.5 1.1.9 2.3.9 2.7zm-3.9 3.2c0 .3-.4.8-1 1.1-.5.3-1 .1-1-.4 0-.6.5-1.1 1-1.1.6 0 1 .2 1 .4zm-790.3 4.8c-.3.8-.6.5-.6-.6-.1-1.1.2-1.7.5-1.3.3.3.4 1.2.1 1.9zM845 686c0 .5-.2 1-.4 1-.3 0-.8-.5-1.1-1-.3-.6-.1-1 .4-1 .6 0 1.1.4 1.1 1zm-731.6 4.8c.2.4.1 1.4-.3 2.1-.6.9-1 .7-1.4-.8-.5-2 .7-2.9 1.7-1.3zm5.3 11.4c-.3.8-.6.5-.6-.6-.1-1.1.2-1.7.5-1.3.3.3.4 1.2.1 1.9zM815 715.8c0 .4-2 3-4.4 5.6-3 3.4-4.6 4.5-5.1 3.6-.5-.8-.1-1.7 1.1-2.3 1-.6 3.3-2.5 4.9-4.4 3.2-3.5 3.5-3.7 3.5-2.5zm-11.3 14.8c-.3.3-1.2.4-1.9.1-.8-.3-.5-.6.6-.6 1.1-.1 1.7.2 1.3.5zm-8.8 10.8c-.9.8-1 .7-.5-.7.3-1 .7-2.4.7-3 .1-.7.3-.4.6.7.3 1-.1 2.3-.8 3zm-636.1 5.4c.2.7-.2 1-1.2.6-.9-.3-1.6-1.1-1.6-1.6 0-1.3 2.3-.5 2.8 1zM787 757.6c0 .8-.4 1.2-1 .9-.5-.3-1-1-1-1.6 0-.5.5-.9 1-.9.6 0 1 .7 1 1.6zm-591.8 37.9c.3 1.4.1 2.8-.3 3.1-.5.3-.9-.4-.9-1.5 0-1.2-.5-2.1-1.1-2.1-.5 0-.7-.5-.4-1 1.1-1.7 2.3-1.1 2.7 1.5zm6.2 3.4c-.9 1.7-1.7 3.8-1.8 4.6-.1.8-.6 1.8-1 2.2-1.3 1.3.5-6 2.1-8.5 2.1-3.4 2.6-2.1.7 1.7zm560 .7c.3.8.2 1.2-.4.9-.6-.3-1-1-1-1.6 0-1.4.7-1.1 1.4.7zm-21.9 15.3c.3.5.1 1.2-.5 1.6-.5.3-1-.1-1-.9 0-1.8.6-2.1 1.5-.7zM722 819c0 .5-.7 1-1.6 1-.8 0-1.2-.5-.9-1 .3-.6 1-1 1.6-1 .5 0 .9.4.9 1zm12 5.5c0 .8-.2 1.5-.4 1.5s-.6-.7-1-1.5c-.3-.8-.1-1.5.4-1.5.6 0 1 .7 1 1.5zm-40.2 7.6c-.3 4-1.8 4.9-1.8 1.1 0-2.5.7-4.2 1.7-4.2.2 0 .2 1.4.1 3.1zm-419.8 6c0 1.1-.4 1.7-1 1.4-.5-.3-1-1.3-1-2.1s.5-1.4 1-1.4c.6 0 1 .9 1 2.1zm12.8 10.9c-.1 2.2-.4 4-.8 4-1.5 0-2.6 4.6-1.9 7.4.5 1.6.5 3.4.2 4-.4.6-1 0-1.3-1.4-.4-1.8-1.4-2.6-3.3-2.8-2.9-.4-3-.5-2.1-3.9.5-2 .8-2.1 2.1-.7 2.3 2.3 4.3-.1 4.3-5.1 0-3.7.5-4.7 2.7-5.4.2-.1.2 1.7.1 3.9zm15.2 3c0 .5-.2 1-.4 1-.3 0-.8-.5-1.1-1-.3-.6-.1-1 .4-1 .6 0 1.1.4 1.1 1zm301 25.4c-.1 1.9-.2 1.9-1.1.4-.5-1-1.6-1.5-2.4-1.2-.8.4-1.5.1-1.5-.6 0-.6.5-.8 1-.5.6.3 1 .2 1-.4 0-.6.7-.8 1.5-.5.8.4 1.5 1.6 1.5 2.8zm-26.3 1c-.2.6-1.3.9-2.3.8-2.6-.5-3.1-1.2-1.5-2.2 1.8-1 4.3-.1 3.8 1.4zm-84 10.8c-.3.8-.6.5-.6-.6-.1-1.1.2-1.7.5-1.3.3.3.4 1.2.1 1.9zm-37.2 8.2c-.4 2.5-1.4 5.1-2.2 5.8-1.3 1-1.4.6-.8-2.8.7-4.1 2.5-8.7 3.2-8 .3.2.1 2.5-.2 5z"/><path d="M449.5 60.6c-2.2.2-9.2.9-15.5 1.4-17 1.6-42.1 5.6-55.6 9-12.6 3.1-44.2 12.5-45.2 13.4-.3.4.5 1.7 1.7 3 2.4 2.5 2.9 2.5 9.1-.1.8-.3 2.2-.7 3-.7.8-.1 1.7-1.2 2.1-2.6.4-1.6.7-1.9.8-.8.1 1 .3 1.8.6 1.8s5.8-1.6 12.3-3.5c14.5-4.3 42.3-9.9 63.6-12.7 13.4-1.9 20.9-2.2 45.1-2.2 16 0 31.5.3 34.5.7 3 .4 8.1 1.1 11.3 1.6 4.1.6 6 .5 6.3-.3.7-1.9 4.4-1.7 4.4.2 0 1.4 2.5 2.1 14.3 4 49.1 8.1 110.1 32.6 152.9 61.3 7.2 4.9 9.2 5.8 10 4.8.8-1.1.9-1 .4.3-.4 1.3 1.2 3 6.1 6.5 8.6 6.3 25.8 20.1 30.7 24.7 2.1 2.1 4.4 3.5 5.1 3.2.8-.3 1.6.5 1.9 1.8.3 1.2 3.4 4.9 6.8 8.2 15 14.2 36.6 40.5 50.5 61.5 40.4 60.8 63.1 127 69.2 201.4 2.9 34.4-.6 72.7-10.5 116-7.9 34.5-23.8 75-42.6 108.3-3.9 7-8.6 14.9-10.5 17.7-1.8 2.7-3.3 5.5-3.3 6.2 0 .7-.6 1.6-1.3 2-2.5 1.4-8.7 11.7-8.7 14.3 0 1.8-.3 2.1-.9 1.2-.8-1.4-3.5 1.7-14.9 17.2-2.4 3.2-6 7.5-8 9.6-25.3 25.5-23.7 23.7-22.4 26.4.6 1.4 1.5 2.6 2 2.6 1.3 0 18-17.5 29-30.4 8.6-9.9 10.1-12.2 9.7-14.5-.3-1.4-.2-2 .1-1.3.3.6.9 1.2 1.4 1.2 1.2 0 14.5-18 17.4-23.5 1.4-2.4 3.1-5.2 4-6 2.6-2.6 12.9-20.5 12.3-21.2-.4-.3 0-1.1.7-1.7 5.5-4.2 24.3-46.3 32.9-73.6 6.9-21.9 8.3-27.2 11.6-43.3 3.6-17.2 3.8-19 1.6-16.1-1.3 1.8-1.4 1.8-.8-.6.3-1.4 1.2-3.2 1.9-4 1.6-1.9 4-19 5.5-40 1.5-22 .2-53.6-3.1-73.5-.5-3.3-1.4-9.6-2.1-14-2.1-15.9-9.2-46.1-12.7-55-.5-1.1-2.8-7.8-5.1-15-2.4-7.1-5.6-15.8-7.2-19.2-1.6-3.5-2.9-6.6-2.9-6.8 0-.6-5.3-12.3-9.6-21-3.4-6.8-5-9.8-12.8-24-4.3-7.6-21.2-33.4-24.8-37.7-1.3-1.5-3.9-4.9-5.8-7.5-11.5-16-40.4-46.2-58.5-61.3-11.5-9.7-32-25-33.3-25-.6 0-1.2-.4-1.4-.9-.2-.7-16.3-11-26.8-17.1-26-15.3-59.7-29.6-92-38.8-22.2-6.4-33.4-8.8-54.3-11.7-13.9-1.9-17.2-2.1-19.2-1.1-1.4.7-2.2 1.6-1.8 1.9.3.4.1.7-.5.7-.7 0-1.2-.5-1.2-1 0-2.2-.2-2.5-2.3-3.3-2.3-.9-48.2-1.8-55.2-1.1zm348.2 165c-.3.3-1.2.4-1.9.1-.8-.3-.5-.6.6-.6 1.1-.1 1.7.2 1.3.5zm50.7 91.4c-.6.5-2.4-2.1-2.4-3.4 0-.6.6-.1 1.4 1 .8 1 1.2 2.1 1 2.4zm-17.1 347.5c-.3.9-.8 1.4-1 1.1-.3-.3-.2-.9.2-1.5.9-1.6 1.5-1.3.8.4z"/><path d="M497.5 82.3c-.3.7-1.1 8.2-2 16.7-.8 8.5-1.8 17.7-2.1 20.5-.3 2.7-.7 7.2-.9 10-.3 2.7-1.2 12.5-2.1 21.8-1 9.2-1.5 17-1.1 17.3.7.7 22.6 2.8 23.2 2.2.2-.2 1.6-12.5 3-27.3 1.4-14.9 3.2-33.2 4-40.7.8-7.5 1.5-15.1 1.5-16.8 0-3-.2-3.1-3.7-2.9-2.1.1-5.4-.1-7.3-.4-8.2-1.4-12.1-1.5-12.5-.4zM424.6 83c-4.9.5-9.3 1.3-9.8 1.8s-.4 5.4.2 12.3c.6 6.3 1.3 14.5 1.6 18.4.6 10.4 4.6 56 4.9 56.2.4.5 22.7-1.5 23.2-2.1.4-.3 0-8.8-.8-18.9-.8-10-1.3-18.5-1.1-19 .2-.4 1.1-.3 2.1.3 1.8.9 4.4 8.6 3.5 10.2-.3.4.1.8.8.8.9 0 .9.3.2.8-1 .6-.1 21.5 1.1 24.9.4 1.2 3.4 1.2 17.4-.3l5.3-.6-.6-4.7c-.3-2.6-.9-8.8-1.2-13.7-.9-15.1-2-19.6-5.4-22.7-1.7-1.5-3.9-2.7-5-2.7s-2-.4-2-1c0-.5.6-.7 1.4-.4.7.3 2.6-.6 4.2-1.9 2.5-2.2 2.9-3.2 3.2-9.7.5-8.5-1.4-18.6-4-21.2-1-1-1.8-2.2-1.8-2.6 0-.5-1.7-1.8-3.7-2.9-3.2-1.7-5.5-2.1-14.3-2.1-5.8 0-14.5.4-19.4.8zm22.1 14.3c-2.1 1.8-2.6 2.9-2.3 5.2 1.5 9.6 1.5 10.5-.6 12.5-1.7 1.6-2 2.7-1.5 6.2l.6 4.3-1.4-3c-.9-1.9-1.2-4.5-.9-7.2.3-2.3.3-4.7-.1-5.4-.4-.6-.8-4-.9-7.5l-.2-6.3 3.1-.4c7-.9 7.2-.8 4.2 1.6zm-24 46.9c-.3.7-.5.2-.5-1.2s.2-1.9.5-1.3c.2.7.2 1.9 0 2.5zM326.5 86.8c-8.9 3.3-37.7 16.1-38.5 17.1-.3.3-4.9 2.8-10.3 5.5-11.5 5.8-33.8 19.5-44.6 27.3-15.5 11.4-18.9 14-30.1 23.8-53 46.1-92.7 103.9-117.5 171-3.2 8.7-4.1 11.3-5 15.2-.3 1-2.5 8.5-5 16.8-2.4 8.2-4.4 16.5-4.5 18.3 0 1.8-.5 4.2-1 5.3-.6 1.1-1.3 3.6-1.6 5.7-.7 4.7-1 6.4-2.3 13.2-2 10.5-4.3 34.5-3.8 39.2.4 2.9.2 5-.5 5.4-1.4.9-.4 11 1.4 13.2 1.2 1.5 1.1 1.6-.5.3s-1.7-.6-1.7 12c0 12 2.3 45 3.4 48.9.3.8.8 4.2 1.1 7.5.9 9.4 6.6 35.3 10.5 48 12.8 41.5 24.2 68.6 40.8 97 4.4 7.5 4.1 7.2 5.3 5.5.8-1.1.9-.8.5 1.2-.3 1.5-.2 3 .4 3.3.5.3 1 .1 1-.5s.4-.9 1-.5c.5.3.7 1.2.4 2-.8 1.9 3 8.4 13.2 22.5 29.1 40.4 65.4 75.2 106.9 102.4 21.5 14.1 24.1 15.5 23.6 12.3 0-.4.4-.7.9-.7.6 0 1 .8.8 1.7-.2 1.3 1.8 3 7.2 6 4.1 2.4 7.8 4.3 8.2 4.3.5 0 .8-1.5.8-3.3-.1-3.1-.6-3.5-12.7-10.2-19.7-11-50.2-31.7-60.5-41.3-1.6-1.4-3.3-2.2-4.2-1.9-1.1.4-1.6.1-1.6-1.2 0-1-3.7-4.9-8.5-9-26.2-22.5-60.6-65.5-78-97.6-2-3.9-4.1-7.5-4.5-8-1.8-2.2-12.1-23.8-17.9-37.3-5.8-13.6-14.6-39.2-19-55.2-6.6-24.3-13.1-68.6-13.1-89.6 0-4-.4-8.4-1-9.8-.6-1.8-.6-2.6.1-2.6.6 0 .9-.6.6-1.3-.2-.6-1-1.1-1.6-1-1.6.4-1.4-.8.4-2.1 1.8-1.4 2.5-19 .6-19.2-3.1-.4-3.4-.7-1.1-1.3 2.3-.6 2.6-1.3 3.3-8.1.4-4.1 1.6-13.6 2.8-21.1 1.1-7.5 1.9-14 1.8-14.5-.1-.5.1-1.6.4-2.4.3-.8 1.5-6 2.7-11.5 1.1-5.5 3.2-14.3 4.7-19.5 1.4-5.2 2.5-10.5 2.5-11.8-.1-1.2.2-2.2.7-2.2.5 0 3.1-6.4 5.6-14.3 6.9-20.9 19-47.7 31-68.7 6.9-12.1 18.5-30.3 23.2-36.3 1.8-2.3 3.3-4.7 3.3-5.4 0-.6.4-1.3.9-1.5.4-.2 4.6-5 9.2-10.8 4.6-5.8 10.3-12.5 12.6-15 2.4-2.5 4.3-5.3 4.3-6.3 0-.9.6-1.7 1.3-1.7.8 0 5.4-4.1 10.3-9 20.2-20.4 55.3-47.7 77.5-60.2 2.4-1.4 7.3-4.2 10.9-6.3 10.5-6 35.6-18.1 48-23 6.3-2.5 11.8-4.9 12.2-5.3.4-.4-.3-1.6-1.5-2.8-2.1-1.9-2.4-1.9-6.2-.6zm-67.8 732.4c-.3.8-.6.5-.6-.6-.1-1.1.2-1.7.5-1.3.3.3.4 1.2.1 1.9zM547.1 105.3c-3.7 14-16.5 63.1-17.3 66.8-.3 1.4 2 2.1 24 7.9l14.3 3.8 1-2.5c.5-1.4 1.1-3.7 1.3-5.2.2-1.4.8-3.9 1.5-5.4.6-1.6 1.1-3.4 1.1-4.1 0-1.2-10-4.6-13.5-4.6-1.9 0-1.9-.8.3-9.7 1.9-8.1 1.9-8.1 9.6-5.8 2.8.8 5.3 1.2 5.7.8 1-1 3.9-12.5 3.9-15.1 0-1.7-1-2.3-5.6-3.3-3.1-.7-5.8-1.9-6.1-2.6-.3-.7.3-4.2 1.2-7.7l1.7-6.3 3.7 1.3c2 .7 5.2 1.5 7.2 1.9l3.6.7 1.6-5.9c3.3-12.3 3.3-12.1-1-13.2-2.1-.5-10-2.6-17.6-4.5-7.5-2-14.3-3.6-15-3.6-.7 0-2.9 6.3-5.6 16.3zM369.2 94.5c-8.4 2.4-15.6 4.5-15.9 4.9-.9.9-1.1 11.6-.2 12.2.8.5 2.1 7.1 2.5 12.9.5 7.3 1 9.8 7.4 32.5 3.4 12.4 6.5 23.5 6.8 24.8.7 3.3 2.3 3.6 8.9 1.8 3.2-.8 7.8-2 10.3-2.7 2.5-.7 4.7-1.3 4.9-1.5.5-.4-6.8-27.5-7.9-29.6-2.3-4.1-1.3-5.6 5-7.4 3.3-.9 6.2-2 6.5-2.3.5-.8-3.7-15.7-4.7-16.7-.4-.4-1.4-.1-2.3.6-.9.7-1.8 1-2.1.7-.3-.3-2.4.1-4.5.8-3.1 1.1-4.1 1.2-4.4.2-.2-.7-1-3.4-1.9-6.1-2-6.2-2-7.6-.1-7.6 1.3 0 1.4-.4.5-2-1.3-2.4-.7-2.6 1.4-.5 1.3 1.4 2.2 1.4 5.8.4 2.4-.7 4.5-1.4 4.7-1.5.7-.6-3.2-15.9-4.3-17-.8-.8-5.2 0-16.4 3.1zm4.1 6.5c1 1.6 1.6 3 1.3 3-.2 0-1.4-1.4-2.6-3-1.2-1.7-1.8-3-1.3-3s1.7 1.3 2.6 3zm4.1 3.6c.3.8.2 1.2-.4.9-.6-.3-1-1-1-1.6 0-1.4.7-1.1 1.4.7zM347.6 100.8c-.6.9 1.5 8.7 2.7 9.8.4.4.7-1.8.7-4.9 0-4.3-.4-5.7-1.4-5.7-.8 0-1.7.4-2 .8zM618.8 111.2c-3.5 6.5-6.7 14.1-6.2 14.9.3.5 0 .9-.6.9s-5.8 9.8-11.6 21.7c-5.8 12-11.2 23.1-12.1 24.8-4.2 8-6.3 12.6-6.3 13.5 0 1 16.7 9.6 17.4 8.9.2-.2 2.5-4.7 5.1-9.9 3.5-7 4.8-10.7 4.9-14 0-2.5.2-3.7.4-2.8.3 1.8 2.2 2.6 2.2 1 0-.5.7-1.7 1.6-2.8 1.5-1.9 1.5-1.9 1 .1-.3 1.1-.8 4-1 6.5-.3 2.5-1.5 9.2-2.6 15-1.1 5.8-2 10.8-2 11.2 0 .6 17.2 9.8 18.3 9.8.2 0 2.1-3.7 4.2-8.3 2.2-4.5 4.2-8.4 4.5-8.7 1.3-1.3 6-12.3 6-14 0-1.1.4-2 1-2 .5 0 3.7-5.7 7.1-12.8 3.4-7 8.4-17.1 11.1-22.5 2.7-5.4 4.8-10 4.6-10.2-1.9-1.7-11.5-5.6-12.9-5.2-1.1.3-1.7.2-1.4-.3.3-.4-.2-1.4-1.1-2.1-1.4-1.1-1.8-1-3 .6-1 1.3-1.1 2.2-.3 3.2.9 1 .8 1.3-.5 1.3-1 0-3.7 4.1-7.6 11.7-4.5 8.7-5.9 10.9-5.6 8.3.3-1.9.8-5.7 1.2-8.4.5-3.5.4-4.7-.5-4.2-1.6 1-1.4-.4.3-2.3 1.5-1.6 3.8-14.9 2.9-16.4-.3-.5-4-2.5-8.2-4.4-4.2-2-7.9-3.7-8.3-4-.4-.2-1.3.7-2 1.9zm-5.1 22c-.3.8-.6.5-.6-.6-.1-1.1.2-1.7.5-1.3.3.3.4 1.2.1 1.9zm3.3 11.7c-.1.7-7.1 5.3-7.5 4.9-.2-.2-.6-1.4-1-2.8-.5-2.4-.4-2.5 4-2.6 2.5-.1 4.5.1 4.5.5zm-15.7 29.2c-.6.6-1.8.6-2.8.3-1.8-.7-1.8-.8.1-1.4 2.3-.9 3.9-.1 2.7 1.1zm28.4 2.5c-.3.3-1.2.4-1.9.1-.8-.3-.5-.6.6-.6 1.1-.1 1.7.2 1.3.5zm-35 5.6c-.3.7-.5.2-.5-1.2s.2-1.9.5-1.3c.2.7.2 1.9 0 2.5z"/><path d="M266.5 138.3c-6.4 2.5-11.3 5.7-14.8 9.6-5.3 5.8-7 10.5-6.4 17.2.6 6.6 3.3 11.6 19.2 35.9 10.6 16.1 14.7 20.7 19.7 21.7 1.5.3 3.1 1 3.4 1.4.7 1.2 5.1 1.1 5.8 0 .4-.5 1.8-.8 3.3-.6 2.7.3 11.3-3 11.3-4.4 0-.4 1.2-1.4 2.6-2.1 3.6-2 5.7-6.5 5.8-12.6 0-2.8.5-5.1 1.1-5.1 3.8 0 4.5-.4 4.5-3.1-.1-4.9-7.1-17.4-23.8-41.9-7.3-10.7-8.9-12.5-13.4-14.7-5.7-2.9-13-3.3-18.3-1.3zm12.7 31.1c3.9 6.1 10.1 15.6 13.7 21.1 6.4 9.8 8.2 15 5.1 15-.8 0-4.6-4.8-8.5-10.7-23.5-36-23.9-36.6-22.3-38.5 1.6-2 3.6.2 12 13.1zM691 155.7c-2.5 3.1-6.4 8.1-8.7 11.2-2.4 3.1-5.1 6.5-6.2 7.6-1 1.1-5.8 6.9-10.7 13-4.8 6-12.4 15.4-16.8 20.8l-8 9.8 3.5 3c1.9 1.7 6.1 5.1 9.4 7.7 3.3 2.5 8.5 6.6 11.5 9.1 11.6 9.3 17.9 10 25.7 2.8 4.2-3.8 7.6-8 29.5-36 9.5-12.1 11.1-16.3 8.9-22.9-1.4-4.4-9.6-13.5-16.4-18.5-6.5-4.7-6.3-4.5-11.7-9.3-2.5-2.2-4.7-4-5-4-.3 0-2.5 2.5-5 5.7zm16 25.7c0 1.9-14.3 20.3-26.7 34.3-6 6.8-6.5 7.1-8.9 6.1-2.1-1-2.3-1.4-1.2-2.3.8-.5 5-5.5 9.3-11 20.1-25.5 24.7-30.6 26.1-29.4.8.6 1.4 1.7 1.4 2.3zM453 185.1c-42.6 1.7-81.7 12.7-120.2 33.7-9.7 5.3-15.8 9.3-16.1 10.4-.3 1-1.1 1.7-1.9 1.6-.8-.2-1.2.6-1.1 2.2.1 1.4 0 1.8-.3.7-.8-2.7-2.4-2.1-10.4 3.9-13.3 10-23.6 19.2-38.3 34.4-15.6 16.1-23.4 25.5-34.5 42-8.4 12.5-23.2 40.8-23.2 44.4 0 1.5-.4 2.6-.9 2.6-1.3 0-3.4 6.7-2.8 8.5.3.7 0 1.6-.7 1.8-3 1.2-10.1 26.1-13.6 48.2-3.1 19-3.5 26.2-3.4 55 0 20.2.5 30 1.8 39 2.3 15.7 4.1 24.4 5.5 25.8 1.5 1.5 2.6.1 1.3-1.6-.9-1.1-.5-1.8 1.8-3.5 1.6-1.2 3.4-2.2 3.9-2.2.6 0 1.4-.7 1.9-1.6.7-1.3 1.1-1.4 1.7-.4.5.9-1.1 3.2-5 6.9l-5.8 5.6 2.2 8.5c4.6 17.6 14.8 42.4 24.9 60.5 5.7 10.4 14.3 23.5 15.3 23.5.5 0 .9.5.9 1.2 0 4.4 27.7 35.2 47.5 52.8 14.5 12.9 21.7 18.1 23.3 16.8.9-.8 1.1-.7.6.5-.6 1.7 5 5.8 19.4 14.1 8.3 4.9 10.7 5.3 8.3 1.4-.9-1.5-.9-1.8 0-1.2.9.5 1.1-.5.6-4.7-.4-3-.7-6.6-.7-8.1 0-2.2-1.5-3.6-9.7-9-5.4-3.4-10.2-6.5-10.8-6.7-.5-.2-1.2-.7-1.5-1-.3-.3-3.9-3.3-8-6.6s-8.6-7-9.9-8.2c-1.4-1.2-4.7-4.1-7.5-6.5-6.2-5.1-19.8-20.1-29.9-32.8-5.8-7.2-8.4-11.1-14.9-21.5-8.2-13.1-15.8-27.7-21.3-40.8-5-12.3-8-21.6-13.6-43-.5-2.1-1.4-3.5-1.9-3.2-.6.4-1-.1-1-.9 0-.9.4-1.6.9-1.6.6 0 .6-1.3.1-3.3-.5-1.7-1.7-8.4-2.7-14.7-2.2-14.5-2.5-55.7-.5-70 3.2-22.6 11-52.4 17.9-67.9 1.9-4.3 2.1-5.6 1.1-6.2-1-.7-1-1.1.1-2.1 1-1 1.2-1 .7-.1-.4.7-.3 1.3.1 1.3.5 0 3.5-5.4 6.8-12.1 3.2-6.7 8.3-15.9 11.2-20.5 2.9-4.6 5.3-8.6 5.3-8.9 0-.2.6-1.3 1.4-2.2.8-1 4-5.2 7-9.3 8.2-11 11.8-15.1 25.1-28.9 14.3-14.8 11.5-12.2 25.5-23 39.8-30.6 85.4-49.5 134.1-55.6 12.1-1.5 48.9-2.2 57.4-1.1 21.5 2.8 21.7 2.9 22.6 1.5.7-1.1.9-1 .9.3 0 1 .5 1.8 1 1.8.6 0 1-.8 1.1-1.8 0-1.4.2-1.3.9.4.6 1.5 2.6 2.4 8.7 3.7 8.7 1.9 29 8.1 39.5 12.1 15.3 5.8 52.2 26.1 61.2 33.6 1.1 1 6.4 5.3 11.6 9.6 12.9 10.6 28.9 26.7 38.9 39.2 16.5 20.6 33.2 50 42.1 74.2 2.3 6.3 4.7 12.4 5.3 13.5.6 1.1 1.1 2.9 1.2 4 .1 1.1 1.4 6.3 2.8 11.6 2.6 10.1 5.2 24.1 6.3 34.9.3 3.6.8 6.8 1 7.2.6.9.7 44.5.1 45.5-.3.4-.8 4.4-1.2 8.8-.3 4.4-.8 9.2-1 10.7-.2 1.6.1 3 .6 3.4.5.3.9 1 .9 1.5 0 .6-.5.7-1 .4-1.2-.7-1.1-.9-4 12.6-1.7 8.4-2 11.1-1.1 12.8.8 1.4.8 2.1.1 2.1-.5 0-1-.5-1-1.2 0-1.4-1.3-.2-1.6 1.5-.1.7-2.3 7.3-4.9 14.7-8.8 25.8-26.6 58.2-44 80.1-8.4 10.5-28.3 30.6-39.7 40.1-5.4 4.4-9.5 8.5-9.1 9.1.3.6.1.7-.5.3-.6-.3-6.5 3-13.2 7.5-6.7 4.4-18.8 11.4-26.9 15.6-8 4.1-14.5 7.8-14.4 8.1.1.4.4 2.1.8 3.7l.7 3-1.7-3c-.9-1.6-1.7-3.1-1.9-3.2-.2-.2-6.8 2-14.7 4.8-15.2 5.3-33.5 10.4-42 11.5-2.7.4-5.2 1-5.4 1.4-.3.4.2 2.2 1.1 3.9 2.4 4.8 1.1 4.7-1.5 0-2.2-3.9-2.6-4.1-5.9-3.5-4.9.7-5.5 1.7-3.7 5.9.8 2 1.5 5.2 1.5 7.2 0 3.3.2 3.5 3.4 3.5 8.3 0 49.5-9.1 51.9-11.4.7-.7 1.8-1.1 2.4-.9 2.8 1 33.2-12.5 50.3-22.2 10.5-6 27.2-17.3 33.3-22.5.4-.4.3-1.9-.2-3.3-.7-1.7-.7-2.7-.1-2.7s1 .9 1 2c0 3.1 1.7 2.4 8.7-3.8 15.3-13.4 34.9-34.2 45-47.7 16.9-22.6 33.1-51.3 31.7-55.9-1.1-3.4-1.3-6.6-.4-6.6.5 0 1.2 1 1.6 2.2l.7 2.2 1.2-2.5c5-9.6 15-43.4 13.8-46.4-.2-.7.2-2.6 1.1-4.2.8-1.6 1.7-4.7 2-6.9.3-2.1 1.2-8.6 2.1-14.4 2-13.2 2.6-49.9.8-52.1-.9-1.1-.9-2.6-.1-5.9.5-2.5.7-8 .4-12.3-.8-10.1-4.5-31.9-5.7-33.3-.5-.6-.7-1.3-.4-1.6.7-.7-4-19.4-7.3-28.9-3.8-10.8-10.2-26-15.9-37.3-5.4-10.8-15.2-26.8-17-27.9-.7-.4-1.3-1.3-1.3-2 0-2.1-9-13.2-10.6-13-1 0-1.3-.4-1-1.4.3-.8-.5-2.7-1.8-4.1-1.3-1.5-6-6.8-10.4-11.7-24.1-27.1-51-48.1-82.4-64.4-7.3-3.8-16.7-8.1-20.8-9.6-4.1-1.5-8.3-3.1-9.3-3.7-5.4-2.7-29.7-9.8-39.2-11.4-10.2-1.6-12.1-1.7-10.7-.3.6.7 1.2 2.4 1.1 3.8-.1 2.3-.3 2.2-1.9-1.3-1-2.2-2.7-4.3-3.8-4.7-6.4-2.4-39.8-3.8-66.2-2.8zM213.3 360c.3 1.1.1 2-.4 2s-.9-.9-.9-2 .2-2 .4-2 .6.9.9 2zm522.8 34.7c1.3 1.6 1.2 1.7-.3.4-1-.7-1.8-1.5-1.8-1.7 0-.8.8-.3 2.1 1.3zm-543.4 28c-.3 1-.5.4-.5-1.2 0-1.7.2-2.4.5-1.8.2.7.2 2.1 0 3zm-2.2 15.9c-.2 1.8-.9 4.1-1.5 5.1-.9 1.5-1 1.2-.6-1.6.3-1.8.6-4.8.6-6.5 0-2.1.3-2.7.9-1.7.5.7.7 2.8.6 4.7zm.9 9c.3.8.2 1.2-.4.9-.6-.3-1-1-1-1.6 0-1.4.7-1.1 1.4.7zm562.8 7.8c.4 1.7.1 2.3-.9 1.9-1.4-.5-1.7-2.5-.6-3.6.9-1 1-.9 1.5 1.7zm-6.5 55.8c-.3.7-.5.2-.5-1.2s.2-1.9.5-1.3c.2.7.2 1.9 0 2.5zm-5.7 21.2c-.7.7-1.4.6-2.1-.1-.9-.9-.7-1.2.9-1 1.4.1 1.8.5 1.2 1.1zm6.8 4.4c2 3.1.1 2.7-2.2-.5-1.2-1.6-1.4-2.4-.6-2.1.7.2 2 1.4 2.8 2.6zm-8 19.4l-.3 2.3-1.3-2.3c-1.1-1.9-1.1-2.6 0-3.9 1.2-1.5 1.3-1.5 1.6 0 .2.9.2 2.7 0 3.9zm-1.3 7.7c-.3 1.2-1 2.1-1.5 2.1s-.4-1.1.2-2.5c1.3-2.9 2.3-2.6 1.3.4zm-7.9 16.9c-1.1 1-1.5-.4-.8-2.8l.7-2.5.3 2.3c.2 1.3.1 2.6-.2 3zm-514.4 2.7c.3 1.3.1 2.2-.3 1.9-.9-.5-1.3-4.4-.5-4.4.2 0 .6 1.1.8 2.5zm497.1 28c-.3.9-.8 1.4-1 1.1-.3-.3-.2-.9.2-1.5.9-1.6 1.5-1.3.8.4zM238 612c0 .5-.2 1-.4 1-.3 0-.8-.5-1.1-1-.3-.6-.1-1 .4-1 .6 0 1.1.4 1.1 1zm475 6.5c0 .8-.4 1.5-1 1.5-.5 0-.7-.7-.4-1.5.4-.8.8-1.5 1-1.5.2 0 .4.7.4 1.5zm-67.3 69.7c-.3.7-.5.2-.5-1.2s.2-1.9.5-1.3c.2.7.2 1.9 0 2.5zm-335.6 12.1c-1 .9-1.1.8-.5-.6.3-1 .9-1.5 1.2-1.2.3.3 0 1.1-.7 1.8zm308.9 7.6c0 .6-.4 1.3-1 1.6-.5.3-1-.1-1-.9 0-.9.5-1.6 1-1.6.6 0 1 .4 1 .9zm-8 10.1c0 .5-.2 1-.4 1-.3 0-.8-.5-1.1-1-.3-.6-.1-1 .4-1 .6 0 1.1.4 1.1 1zm-91 33.8c0 1.5-.2 1.5-1 .2-1.3-2-1.3-3.3 0-2.5.6.3 1 1.4 1 2.3zM202 189.9c-5.5 2-14.8 11-17.8 17.2-2.8 5.9-3 14.5-.3 19.8 2.1 4 35.1 37.4 37.6 37.9.8.2 2.8 1.6 4.5 3.2 5.5 5.1 16.6 5 23.4-.3 12.5-9.8 16-15.6 15.8-27-.1-6.7-4.2-13.2-14.5-22.6l-2.6-2.4-2 2.4c-2.8 3.4-2.6 3.9 1.5 3.6 5.1-.3 5.6 2 .7 2.9-2.1.5-4.1.8-4.5.9-.3 0-1 .3-1.4.7-.4.4-1.2.3-1.9-.2-.8-.7-2.3.3-5 3l-3.9 4 7.2 7.4c4 4.1 7.2 7.8 7.2 8.4 0 .5-.7 1.5-1.5 2.2-1.6 1.4-4.8-.5-9.9-5.9-1.6-1.7-3.3-2.8-3.8-2.5-.4.3-.8-.1-.8-.8 0-.8-6.3-7.6-14-15.3-13.1-13-14-14.1-14-17.7 0-3.2.3-3.8 2.1-3.8 1.2 0 1.7-.4 1.4-1.1-.5-.7-.2-.7 1.1 0 1.1.6 3.8 1.5 6.1 2.1 2.7.7 4.4 1.7 4.8 3 .7 2.1 2 2.6 3 1.1.3-.6 2.5-.3 5.3.7l4.7 1.7-5.5.3c-3 .2-6.3-.1-7.5-.7-1.1-.5-3.2-1.2-4.7-1.5-4.3-1-3.3 1.2 3.6 7.6l6.2 5.7 8.4-8.4 8.4-8.5-2.9-3c-1.6-1.6-3.5-3-4.2-3-.7 0-1.3-.6-1.3-1.4 0-1.9-7.6-8.1-12.3-10.1-4.5-1.9-10.9-1.7-16.7.4z"/><path d="M319 201.6c0 .9.5 1.4 1.2 1.2 1.8-.6 2.1-2.8.4-2.8-.9 0-1.6.7-1.6 1.6zM451.5 204.6c-9.2.7-29.8 3.5-34.4 4.6-55.4 13.2-93 33.2-131 69.4-17.4 16.6-41.1 46.8-41.1 52.4 0 1.1-.5 1.9-1.1 1.8-.6-.2-2.4 1.8-4 4.4-1.6 2.7-2.6 4.8-2.4 4.8.3 0-.7 1.9-2.1 4.2-2.9 4.6-8 15.2-11.4 23.8-6.8 17-15.6 48.4-14.7 52.1.3 1.1.2 1.9-.3 1.9-1.1 0-2.8 11.7-1.9 13.2.4.7.3 1.8-.3 2.6-1.7 2-2.3 43.4-.9 57.8 1.3 12.7 2.9 23.3 3.8 24.8.4.5 1.2.1 1.9-.9.8-1 1.6-1.6 2-1.3.3.4-.4 2-1.6 3.6l-2.1 2.9 2.1 8.2c1.1 4.6 2.7 9.3 3.4 10.5.8 1.1 1.9 4.6 2.6 7.6 2.7 12.2 8.9 27.5 18.6 45.4 3.6 6.7 7.1 12.5 7.8 13.1.7.5 1.5 1.8 1.9 2.8 1.2 3.2 14 21 18.5 25.7 2.4 2.5 4.3 4.7 4.3 5-.5 2.6 42.2 42 45.5 42 .7 0 1.4.4 1.6.9.4 1.3 14.9 11.1 16.3 11.1.6 0 1.1-1.4 1.1-3.1 0-2.5-.7-3.6-4-5.6-11.5-7.2-33.2-25-45.1-37.1-4.9-5.1-7.2-6.8-7.8-5.9-.6.8-.7.6-.3-.7.5-1.3-.9-3.6-4.7-8-6.4-7.2-17-21.8-22.7-31.1-5.5-9-16.1-29.8-18.4-36-1-2.8-3.8-10.4-6.2-17-3.6-9.8-8.4-28.5-9.9-38-2.9-19.3-3.7-32.6-3.2-52.5.6-20.7.9-24 2.7-34 .7-3.7.6-4.7-.7-5.8-1.6-1.1-1.5-1.2 0-1.2.9 0 1.7-.8 1.8-1.8.1-2 0-1.9 3.7-15.4 2-7.7 2.5-11.1 1.8-11.8-.8-.8-.7-1.1.2-.8.9.2 2.2-2 3.6-6.2 1.3-3.6 2.8-7.9 3.5-9.5.7-1.7 1.9-4.6 2.6-6.5 4.6-12.5 17.2-35.6 26.6-48.8 3.3-4.5 5.9-8.9 5.9-9.7 0-.8.6-1.5 1.3-1.5.6 0 2.2-1.5 3.4-3.2 4.2-6 22.8-25.2 33.2-34.2 11.2-9.8 22.5-18.1 33.6-24.7 3.9-2.3 7.2-4.5 7.5-4.8 1.5-1.8 27.4-13.6 39.5-18.1 22-8.2 41.9-12.6 68-15.1 13.6-1.3 44.7-.6 56.5 1.3 4.1.6 9.1 1.2 11 1.2 3.2.1 3.5-.1 3.2-2.4-.2-1.4-.5-2.7-.7-2.8-2-2.1-52.9-4.8-68-3.6zM270 640.4c0 .3-.4.8-1 1.1-.5.3-1 .1-1-.4 0-.6.5-1.1 1-1.1.6 0 1 .2 1 .4zM753.1 212.2c-3.4 2.8-6.1 5.7-6.1 6.5 0 .8-.5 1.1-1 .8-.6-.4-4.1 2-7.8 5.2-6.8 6-24.8 21-37.6 31.6-3.9 3.2-7.2 6.2-7.4 6.7-.3.7 4.8 7.2 6.9 9 .3.3 2.8 3.2 5.4 6.5 4.7 5.9 6.1 7.5 9.9 11.5 1.9 1.9 1.9 1.9 6.7-2.1 2.7-2.3 4.9-4.4 4.9-4.9 0-1.5-3.3-2.1-4.2-.8-.5.9-.8.9-.8.1 0-.6-.9-1.5-2-1.8-1.1-.3-2-1-2-1.4 0-1.3 4.9-.4 7.6 1.4 4.7 3 7.4-.4 3.3-4.1-1.2-1-3-3.1-4-4.6l-2-2.7 5.4-4.3c13.1-10.5 33.7-28.2 33.7-29 0-.4.5-.8 1.1-.8 1.3 0 11.9-9.1 11.9-10.2 0-1.1-14.1-17.8-15-17.8-.5 0-3.5 2.3-6.9 5.2zm16 10.7c-.8.5-2 .7-2.8.4-2.1-.8-1.5-1.3 1.5-1.3 2 0 2.3.3 1.3.9zm-56.5 52.2c.8 1.4-5.2 1-6.4-.4-.9-1-.4-1.2 2.4-.9 1.9.2 3.7.8 4 1.3zM522.4 210.5c-1.3 3.2.7 4.2 13.3 7.3 21.8 5.4 46.6 15.5 67.3 27.6 14 8.1 15.4 9 16 9.6.3.3 3 2.3 6 4.5 27.1 19.5 53.4 48.2 70.5 77 3.2 5.5 6.3 10.1 6.7 10.3.4.2.8 1.1.8 2.1 0 .9.6 2.5 1.4 3.6.7 1.1 2.4 4.5 3.7 7.5 1.2 3 2.6 5.7 2.9 6 .3.3 1.1 2.3 1.8 4.6s2.3 5.8 3.8 7.9c1.4 2.1 2.3 4.4 2 5.1-.3.7.3 3.5 1.4 6.1 1 2.6 3.1 10.1 4.6 16.5 1.5 6.5 3.1 11.8 3.6 11.8s.7.4.3 1c-.3.5.4 7.3 1.6 15.2 2.3 15 3.2 47.8 1.7 62-.5 5-.3 7.5.7 9.5 1.5 2.8 1.1 4.8-.5 2.3-1.3-2.1-1.6-1.4-3.5 8.9-.9 5.2-3 14.6-4.6 20.9-1.6 6.3-2.9 13.3-2.9 15.4 0 2.4-.4 3.7-1 3.3-.6-.3-1.3.2-1.6 1.2-.3 1-1 2.6-1.5 3.5-.5 1-2.9 6.7-5.4 12.8-2.4 6.1-5.1 12-6 13.3-.8 1.2-1.5 3.2-1.5 4.5 0 1.2-.6 2.5-1.4 2.8-.8.3-2 2-2.7 3.7-.7 1.8-1.6 3.4-1.9 3.7-.4.3-3 4.2-5.8 8.7-2.8 4.5-7.9 11.9-11.3 16.5-3.7 4.8-5.8 8.3-5.1 8.6.7.2 1.2 1 1.2 1.7 0 3.8 2.7 1.5 10.3-8.7 18.3-24.7 30.3-48.8 40.6-81.2 2.4-7.5 3.1-10.9 2.6-13.8-.5-2.9-.4-3.8.6-3.6.8.2 1.6-1.2 2-3.7.4-2.2 1.4-8.5 2.4-14 1.5-8.8 2.4-21.4 2.9-41 .3-9.6-1.2-30.8-2.8-42.1-2.7-17.8-8.5-41.1-10.2-40.7-.5.1-1.4-.9-2.1-2.3-.6-1.3-.7-2.2-.2-1.8 4.8 2.9-10.3-31.7-22.7-52.2-14.3-23.6-35.1-47.7-58.5-67.7-27.3-23.3-70.4-44.9-107.4-53.8-9.7-2.3-11.4-2.3-12.1-.4zM727.3 540c-.3 1.2-.8 1.9-1.1 1.6-.5-.6.5-3.6 1.2-3.6.2 0 .2.9-.1 2z"/><path d="M474.6 222.2c-3.9 9.2-4.6 11.1-4.6 12.7 0 .9-.7 2.7-1.7 4-1.6 2.3-1.7 2.3-3 .5-2.1-2.8-3.1-.3-2.2 5.4 1.1 6.9 1.1 7-1.3 7.4-2.2.3-2.3.9-2.6 8.6-.2 7-.5 8.2-1.7 7.2-1.6-1.3-2.1-.6-3.3 4.8-.7 2.9-.6 4.4.2 5 1.7 1.4 5.6 2.1 5.6 1.1 0-.5.5-.9 1.1-.9.5 0 .7.5.4 1-.4.6-.1 1.7.5 2.5 1 1.2 1 1.5-.1 1.6-.8.1-2.2.2-3.1.3-2.8.2-10.5 8.3-11.2 11.6-.3 1.7-1.2 3-2 3-1.7 0-2.6 3.1-2.6 9.2 0 5.2-.5 5.8-2.6 3.1-2.3-3.2-2.7-.5-1.6 9.1 2 15.7 1.5 17.2-3.9 12-1.5-1.4-3.2-2.3-3.8-2-1.2.8-.9 2.5 2.5 17.3 3 13.1 3 13.8-.1 13.8-1.4 0-2.5-.6-2.5-1.3 0-.7-.5-1-1.1-.6-2.2 1.3 2.2 45.4 4.8 47.9.7.8.9 1.5.3 1.7-.6.2-.4 3.6.6 9.3.8 4.9 1.7 10.3 2 12 .3 1.6 1.2 6.6 2 10.9.8 4.4 1.2 8.1 1 8.3-.5.5-4.1-8.7-7.5-19.7-2.2-7-4.8-12.2-9.2-19-7.3-10.9-9.9-14.1-11.1-13.4-.4.3-.8-.1-.8-.8 0-.8-1.8-3.4-4-5.8-2.2-2.5-6.3-8.4-9-13.1-2.8-4.8-5.6-8.9-6.4-9.2-.7-.3-3.2.6-5.6 1.9-4.9 2.8-5.4 2.9-4.7 1 .5-1.1-5.7-19.9-7-21.5-.2-.3-.8 0-1.5.7-.8.8-1.9-.1-4.1-3.4-1.6-2.5-3.5-4.3-4.1-4.1-.6.2-1.1 2.8-1.1 6.5 0 3.3-.3 5.8-.7 5.6-.3-.2-3.2-4-6.3-8.5-6-8.6-7.7-9.9-10.7-8-2.7 1.7-5.1 0-8.7-6.3-1.7-2.9-3.8-5.9-4.6-6.6-1.5-1.3-1.6-1.2-2.7 2.9-.2.8-2.1-1.9-4.2-6-5-9.8-6-10.8-8.4-8.6-1.7 1.6-2.4 1.1-13.5-10-6.5-6.4-11.9-11.4-12.1-11.2-.2.2 1.6 5.3 4 11.4 2.9 7.2 4.1 11.2 3.4 11.9-2.3 2.3-.7 5.6 6.2 13.2 6.5 7.1 7 7.9 5 8.2-2 .3-2.2.8-1.7 3.5.4 1.8 2 5.1 3.6 7.4 2.6 3.9 2.7 4.3.9 4.3-4.5 0-2.9 4.2 5.7 14.8 4.9 6.1 5.4 8.2 1.9 8.2-4 0-4 3.5 0 5.4 3.5 1.6 4.2 3.4 2.3 5.3-1.6 1.6-.3 3.3 6.8 9.1 3.4 2.8 6.4 5.6 6.8 6.1.3.6-1.2 2.2-3.5 3.7-4.1 2.8-5.1 5.5-3.1 9.3 1.2 2.1 6.9 1.7 7.8-.5.3-.8.9-1.2 1.3-.9.5.3 1.1.1 1.5-.5.4-.6 1.1-.8 1.6-.4.5.3.2 1.8-.8 3.4-1.3 2.2-2.2 2.8-3.8 2.4-1.2-.3-2.7.1-3.3.9-.9 1.1-.1 2.9 4.3 8.8 10.4 14.3 13.1 17.2 22.5 25.4 11.5 10 46.8 35.8 55.9 41 2 1.1 5.4 3.3 7.6 4.9 3.6 2.5 3.7 2.7 1.3 2.2-1.7-.4-2.8-.2-2.8.5 0 .6-.6.4-1.5-.4-2.6-2.6-36.6-7.7-37.4-5.6-.1.6-.8.3-1.5-.5-2.4-3.3-24.8-4.2-26.8-1.2-.5.8-.8.7-.8-.2 0-.7-1.4-1.2-3.9-1.2-5.6 0-10.1 1.1-10.1 2.5s5 6.2 5.1 4.9c.1-.5.4.2.8 1.6.5 1.4.4 3.3-.1 4.2-.4.9-.8 3.4-.8 5.5 0 4.7-1.1 6.6-3.4 5.7-1.2-.5-1.4-1-.6-1.9.6-.7 1-4 .8-7.2l-.3-5.8-6.5-2.7c-9.9-4-9.8-4.1-9.2 4.7.3 5.2.1 7.5-.7 7.5-.7 0-1.1-2.6-1.1-7.5 0-7.9-1-9.5-5.9-9.5-2.9 0-3.5 1.7-1.6 4.6.9 1.4 1.4 2.8 1.2 3.1-.3.2-2.8-.7-5.6-2.2-2.8-1.4-7.1-2.8-9.6-3.1-4.2-.6-4.4-.5-5.1 2-.6 2.6-.9 2.7-4.8 2.1-2.2-.4-4.8-1.1-5.6-1.5-3.1-1.6-12.3-3.1-13.3-2.1-.5.5-.2 1.9.8 3.5 1 1.4 1.4 2.6 1 2.6-.4 0-5-1.8-10.3-4.1-8.8-3.7-14.3-4.6-11.4-1.7 2.5 2.5.9 2.9-8.9 2.2l-10.2-.7.7 2.6c.6 2.4.3 2.7-3.6 3.7-6.4 1.6-6.8 1.8-7.4 3.5-.8 2.1 1.6 4.7 3.8 4.2 1-.3 1.8-.1 1.8.4s1.6 1.5 3.5 2.4c3.6 1.4 3.6 1.4 2 4.4-1.4 2.8-1.4 3.1.2 4 1 .5 4.6 1.5 8.1 2.1 3.4.7 6.5 1.7 6.8 2.1.3.5 0 .9-.5.9-2.1 0-1.1 2.8 1.2 3.4 1.2.3 6.3.6 11.4.6 9.3 0 12 1 8.3 3-3.4 1.8-2.3 3.7 2.8 4.9 7.9 1.8 17.4 3.1 23 3.1h5.3l-3.6 3.1c-1.9 1.7-3.5 3.5-3.5 4s5.2.9 11.5.9 11.5.3 11.5.6-.9 1.7-2 3.1c-1.1 1.4-1.8 2.9-1.5 3.3.9 1.4 10.4 2.2 17.1 1.5 6.2-.6 6.5-.8 7.9-4.1.8-1.9 1.7-5 2.1-7 .5-2.7.9-3.2 1.9-2.4 1.1.9 1.1 1.8-.1 5.2-2 5.7-1.8 7.1.6 6.3 2.3-.7 2.5.1.5 3.5-.8 1.4-1.4 3.7-1.5 5.3 0 2.3.3 2.7 2.3 2.3 12-2.5 16-2.8 20.3-1.6 3 .9 7.9 1.1 14.7.7 9.5-.5 14.1-1.4 26-5.1l4.8-1.5-2.7 3.2c-1.4 1.8-4.9 4.6-7.7 6.3-4.5 2.8-4.8 3.3-3.1 4.2 1.8 1 1.7 1.3-1.4 4.5-2.4 2.4-3.2 4.1-2.8 5.4.5 1.4-.6 2.8-4.4 5.6-5.5 4.1-6.5 6.7-2.5 6.7h2.5l-2 5.2c-1.8 4.8-1.8 5.2-.2 6.4 1.5 1.1 1.2 1.7-3.1 6.3-2.6 2.7-4.7 5.4-4.7 6 0 .5-.3 1.6-.6 2.5-1 2.5 2 1.9 9.6-1.9 8-4 8-4 8-1.9 0 1.3.6 1.4 3.3.8 1.7-.4 4.9-.8 7.1-.9 3.4 0 4.5-.8 9.5-6.2 4.8-5.3 5.8-6 7.3-5s2.5.5 6.5-3.4c2.7-2.6 5.4-4.4 6.1-4.2 1.9.7 4-1.4 4.7-4.8.4-1.7 1.9-4.5 3.4-6.2 4.2-5 6.1-8.3 5.1-9.3-1.4-1.4-2.4-9.4-1.2-9.4.6 0 1.3 1.3 1.7 3 1.3 5.9 3.5 3.3 6.4-7.5 2.5-9.2 5.9-15.8 8.4-16.3 1.5-.3 1.7.6 1.8 6 .1 3.5 0 6.7-.2 7.3-.2.5-.4 4.1-.5 8-1.8 80-3.5 106.8-8.2 129.3-2.2 10.7-2 11.1 4.7 8.7 5.2-1.8 15.5-1.9 25-.3 3.9.7 7.3.9 7.6.6 1.1-1-1.5-8.9-3.1-9.5-.8-.3-1.3-1.2-.9-2 .3-.8-.4-4.4-1.5-8-1.8-6-4.1-17-4.4-21.8-.1-1.1-.9-3.6-1.8-5.5s-1.8-4.6-2.1-6c-.3-1.4-1.2-5-2.1-8-.8-3-1.3-5.6-1.1-5.8.3-.3.7.4 1.1 1.4.3 1 1 2.8 1.4 3.9.5 1.1 1.3 3.3 1.8 5l1 3 .1-3.1c.1-1.7-.2-3.4-.6-3.8-.4-.4-.8-6.8-1-14.4-.1-7.5-.7-20.5-1.2-28.7-.5-8.3-1.1-20.9-1.4-28-.2-7.2-.5-13.5-.7-14-.1-.6-.2-4.3-.1-8.4l.1-7.4 2.4 2.2c1.4 1.3 4.1 6.2 6.1 11 4.7 10.9 10.9 21.6 14.9 25.9 3.8 4.1 12 9.2 20.6 12.7 3.6 1.4 9 3.9 12.1 5.6 6.5 3.4 6.9 3.4 6.9 1.4 0-1.4.3-1.3 2.5.1 1.4.9 2.5 1.2 2.5.6 0-.5.8-1.3 1.8-1.7 1.4-.5 1.5-.4.5.6-.7.7-1.3 1.9-1.3 2.6 0 1.5 3.2 1.7 4.6.3.7-.7 2.9.2 6.8 2.5 6.5 3.9 7.6 4.2 7.6 2 0-1.9.6-1.9 6.3.1 4.7 1.6 8.4 1.3 7.2-.5-.3-.6 1.7-.7 5-.4 6.4.7 6.8-.1 2.5-5-1.6-1.9-3-3.9-3-4.5 0-.5-1.7-2-3.7-3.2-3.6-2.1-3.7-2.2-1.8-3.7 1.9-1.4 1.9-1.5-1.7-4.8-2-1.8-3.5-4.1-3.5-5.1.2-1.2-1.2-2.2-4.5-3.3-4.7-1.6-7.1-3.1-5-3.1 2.6 0 .9-3.3-5.5-10.3-3.8-4.1-8.7-9.9-11-13-4.2-5.6-13.1-13-14.5-12.1-.4.3-.5 1.2-.2 2.2.5 1.4.4 1.5-.5.2-.6-.8-1-2.6-1-4s.3-1.9.6-1.2c.2.6.9 1 1.4.6.5-.3.9-.1.9.4s3.3 1.7 7.3 2.7c3.9.9 14.9 4.2 24.2 7.2 16.6 5.4 17.2 5.5 28.5 5.4 15.9 0 17.7-.5 14.5-4.1-1-1.1-1.3-2-.7-2 .6 0 2 1.2 3.1 2.6 1.1 1.4 2.5 2.3 3 1.9.6-.3 5.7-.6 11.3-.6 11.3 0 14.5-1.2 13.3-4.7-.7-2.4.3-2.8 10.3-3.7 3.9-.4 7.2-1.1 7.2-1.7 0-.5.5-.6 1-.3 1.9 1.2 3.2-.7 1.3-2-1.6-1.2-1.4-1.4 2.2-2.3 2.2-.6 5.6-1.3 7.5-1.7 9.4-1.8 11-2.5 11-5 0-1.9.6-2.4 4-3 2.5-.4 4-1.2 4-2.1 0-.9.5-1.2 1-.9 1.3.8 5-.3 5-1.5 0-.5-.8-1-1.7-1.2-1-.2.9-1.4 4.4-2.7 7.7-2.9 9.2-4.4 7-6.9-1.6-1.7-1.4-1.9 2.6-3.9 5.5-2.6 11.1-7.3 10-8.4-.4-.4-3.2-1-6.1-1.3-4.7-.5-5.4-.3-6.1 1.6-.7 1.9-.8 1.9-1.4.4-.4-1-1.1-1.4-1.7-1.1-.5.3-1 .1-1-.4 0-.6.5-1.1 1-1.1.6 0 1-.7 1-1.5 0-1.9-2.6-1.9-8 0-5.2 1.8-6.8 1.9-5.2.3 1.9-1.9 1.4-3.1-1-2.3-1.3.3-3.3.8-4.5 1-1.3.2-4.2.6-6.5 1l-4.3.7 2-2.2 2-2.3-10 .8c-12.4 1.1-16.2 1.1-19.9.1-2.7-.7-2.7-.8-1-2.1 3.2-2.5-.2-3.5-12.1-3.5-8.5 0-10.6-.3-9.7-1.2 3.4-3.4-.6-3.6-13.4-.8-4.9 1.1-10.6 2-12.7 2-2.7 0-4.4.6-5.6 2.1-1.5 1.9-2 2-3.9.8-1.7-1.1-3.6-1.1-10.3-.1-4.6.6-8.7 1.6-9.2 2.1s-1.5.7-2.1.5c-.6-.2-7.2.9-14.6 2.5-7.4 1.6-13.7 2.8-13.9 2.5-1-.9 12.1-12.3 17.4-15 4.4-2.3 5.5-3.4 5.5-5.3 0-2.3.1-2.4 1.3-.7 1.3 1.8 1.6 1.8 6.6.1 7.8-2.6 14.7-8.1 23.4-18.7 4.1-5 4.5-6.5 2.1-8.2-1.4-1-1.3-1.5.6-3.8 2-2.6 2-2.9.5-5.7-.8-1.7-1.5-4-1.4-5.3.1-1.5.6-.7 1.7 2.4.8 2.7 1.9 4.8 2.4 4.8 1.2 0 8.2-7.4 9.8-10.5 1.2-2.3 1.2-2.8-.7-4.7l-2.2-2.1 4-7.8c4.3-8.6 4.7-10.6 2.3-12.3-1.4-1.1-1.1-2.1 2.6-9.6 2.2-4.7 5.9-10.6 8.1-13.3 3.9-4.5 4.3-6.2 1.6-6.2-2.1 0-1.9-3.3.7-9.8 3-7.5 3.2-8.4 1-6.6-1.5 1.2-1.6 1.1-.9-1.1.4-1.4 2.1-5.1 3.6-8.2 3.3-6.5 3.6-8.3 1.3-7.4-1.8.7-1.3-1.6 1.7-7.6 2.3-4.6 2.5-7.2.4-6.4-1.1.4-1.5 0-1.3-1.1.2-.9-.5-1.7-1.7-1.9-1.1-.1-2.4-.9-3-1.7-.5-.8-1.9-1.7-3.1-2.1-1.6-.5-2.4.1-3.7 3-1.5 3-2 3.4-3.3 2.3-1.7-1.4-1.8-1.2-6.2 4.9-1.8 2.5-3.2 3.7-3.5 3-.8-2.3-4.9 2.3-4.3 4.8.4 1.5.1 2.1-.9 2-.8 0-3.2 2.1-5.3 4.9-2.6 3.4-4.4 4.9-5.7 4.7-1.1-.2-3.2 1.2-5.4 3.7-2 2.3-8.3 7.4-14.1 11.5-5.8 4.2-11 8-11.7 8.6-.7.5-1.5 1-1.8 1-3.1 0-17.8 13.9-26 24.5-4.6 6.1-23.5 34.1-23.5 35 0 .2-1.4 2.6-3.1 5.2-1.7 2.6-2.9 4.1-2.7 3.3 13.7-41 13.2-38.8 13.5-64.5.2-12.7.5-25.4.6-28.4.2-6.4-.9-7.2-4.6-3.5l-2.7 2.7v-4.5c0-2.5.7-7.8 1.6-11.7 1.9-8.3 1.4-10.5-2.1-9.9-2 .4-2.5.1-2.5-1.7 0-4.3-3.2-11.6-5.5-12.5-1.6-.6-2.2-1.7-2.3-4.1 0-2-.8-3.6-1.8-4.2-.9-.5-3-2.3-4.7-3.8-1.6-1.6-3.5-2.9-4.1-2.9-.6 0-2.1-.8-3.3-1.8-1.6-1.2-2-2.1-1.4-3.1.8-1.2 1.8-.8 5.4 2.2 2.5 2 5 3.7 5.5 3.7s1.5.7 2.2 1.5c1.8 2.1 3 .9 3-2.9 0-3.9-.8-5-2.7-3.5-1.1.9-1.3.1-1.3-4.8 0-7-1.8-10.5-4.4-8.4-1.4 1.2-1.6.5-1.6-7.8 0-7.2-.3-9.1-1.4-9.1-.8 0-1.7.6-1.9 1.2-.3.7-.6-.4-.6-2.6-.1-2.8-.5-3.7-1.5-3.3-1.1.4-1.1-.1 0-3.1.8-2.6.9-4.1.2-5-.6-.7-.8-3.8-.4-7.8.6-5.9.4-6.6-1.2-7.1-1.5-.4-2.2-2.2-3.2-9.1-.7-4.8-1.7-9.6-2.1-10.7-.6-1.8-.9-1.5-2.3 1.7zM467 286c0 .5-.2 1-.4 1-.3 0-.8-.5-1.1-1-.3-.6-.1-1 .4-1 .6 0 1.1.4 1.1 1zm4.8.8c1 1 2.6 2.1 3.5 2.5 1.9.7 2.2 2.3.6 3.2-.6.4-1.9-.1-2.9-1.1-1.1-1.1-2.6-2.5-3.5-3.2-.8-.7-1.5-1.7-1.5-2.2 0-1.6 1.8-1.2 3.8.8zm135.6 65.3c-.6 1.1-2.4.2-2.4-1.1 0-.5.7-.7 1.5-.4.8.4 1.2 1 .9 1.5zm-272.7 5.1c-.3.7-.5.2-.5-1.2s.2-1.9.5-1.3c.2.7.2 1.9 0 2.5zm-2 21c-.2 1.8-.4.6-.4-2.7 0-3.3.2-4.8.4-3.3s.2 4.2 0 6zm48.3-2.7c-1.1 1.3-1.5 1.3-2.1.3-.5-.8-.2-1.5.9-1.9 2.3-.9 2.7-.3 1.2 1.6zm-3.7 3.8c.7-.4.5.1-.3 1.1-.8 1.1-1.6 1.4-1.8.7-.2-.6-.8-.9-1.3-.5-1.3.8-1.1-1 .4-2.5 1-1 1.3-.9 1.5.4.2.9.9 1.2 1.5.8zm-45.6 5.9c-.3.8-.6.5-.6-.6-.1-1.1.2-1.7.5-1.3.3.3.4 1.2.1 1.9zm23.6 8.5c-.3.7-.9 1-1.5.7-.5-.3-2 .4-3.4 1.7-3.8 3.6-3.7 1.7.2-2.5 2.7-2.9 3.8-3.6 4.4-2.6.4.7.6 1.9.3 2.7zm209.1 3.8c.3.8.1 1.5-.4 1.5-.6 0-1-.7-1-1.5s.2-1.5.4-1.5.6.7 1 1.5zm3.1 12c.6 1.5.5 1.7-.4.9-.6-.6-1.4-2.8-1.6-5-.4-3.5-.4-3.6.4-.9.5 1.6 1.2 3.9 1.6 5zm-64.8 3.2c-.2 2.1-.4.6-.4-3.2 0-3.9.2-5.5.4-3.8.2 1.8.2 5 0 7zM344.5 405c.3.5.1 1-.4 1-.6 0-1.1-.5-1.1-1 0-.6.2-1 .4-1 .3 0 .8.4 1.1 1zm241.5 2.7c0 .7-.6 1-1.4.7-.8-.3-1.2-1.3-.9-2.5.5-1.6.8-1.8 1.4-.7.5.7.9 1.8.9 2.5zm-135 2.7c0 1.8-1.7-.8-2.4-3.4l-.7-2.5 1.5 2.5c.9 1.4 1.5 2.9 1.6 3.4zm121.7 12.5c1.3 1 3.2 4.8 2.7 5.4-1.4 1.3-4.3-3.6-4.8-8-.5-4-.4-4.2.3-1.4.5 1.8 1.3 3.6 1.8 4zm-121-3.7c-.3.8-.6.5-.6-.6-.1-1.1.2-1.7.5-1.3.3.3.4 1.2.1 1.9zm49.5 6c-.2 4.6-.7 8.6-1.1 9-.4.5.3-15.5.8-17 .6-1.6.7 1.3.3 8zm-112.5-1c-.3.7-.5.2-.5-1.2s.2-1.9.5-1.3c.2.7.2 1.9 0 2.5zm198.3 7.1c0 .5-.4.5-1 .2-.5-.3-1-1.4-1-2.3 0-1.5.2-1.5 1-.2.5.8 1 1.9 1 2.3zm-49 17c0 .4-1.3.1-2.9-.7-2.1-1.1-3.1-2.5-3.5-5.1-.4-2-1-4.4-1.3-5.3-.3-.9 1.3 1 3.6 4.3 2.2 3.3 4.1 6.3 4.1 6.8zm41.1 12c-1 .9-1.1.8-.5-.6.3-1 .9-1.5 1.2-1.2.3.3 0 1.1-.7 1.8zm-88.4 7.4c-.3 1-.5.2-.5-1.7s.2-2.7.5-1.8c.2 1 .2 2.6 0 3.5zm62.1 4.4c-.8.5-2 .1-3.2-1-1.4-1.4-1.6-2.6-1.1-5.1l.7-3.2 2.4 4.3c1.9 3.3 2.2 4.4 1.2 5zM497 484c0 1.6-.4 3-.8 3s-.7-1.2-.6-2.8c.3-3.2.3-3.2.9-3.2.3 0 .5 1.3.5 3zm-2 8.2c0 2.1-.3 2.9-1 2.2-.5-.5-.7-1.9-.4-3.2.9-3.1 1.4-2.7 1.4 1zm3.4.4c.3.8.2 1.2-.4.9-.6-.3-1-1-1-1.6 0-1.4.7-1.1 1.4.7zm-132.7 5.6c-.3.8-.6.5-.6-.6-.1-1.1.2-1.7.5-1.3.3.3.4 1.2.1 1.9zm130.2 7.3c.1 4.7 0 4.9-1.2 2.5-1.1-2.1-1.6-10.2-.7-12 .5-1.2 1.8 5 1.9 9.5zm100.1-1.2c0 .5-.4.5-1 .2-.5-.3-1-1.4-1-2.3 0-1.5.2-1.5 1-.2.5.8 1 1.9 1 2.3zm-23.8 2.4c-.4 2.1-.6 2.3-1.4.9-1.1-2 0-6.5 1.2-4.7.4.7.5 2.4.2 3.8zm-271.5 7.5c-.3.8-.6.5-.6-.6-.1-1.1.2-1.7.5-1.3.3.3.4 1.2.1 1.9zm301 2c-.3.8-.6.5-.6-.6-.1-1.1.2-1.7.5-1.3.3.3.4 1.2.1 1.9zm-334.9 1.3c.7 1.6.8 3.3.2 4.7-.8 2-.9 1.8-.9-1.5-.1-2.3-.5-3.6-1.1-3.2-.5.3-1-.1-1-.9 0-2.4 1.5-1.9 2.8.9zm169.3 1.2c1.3 1.6 1.2 1.7-.3.4-1-.7-1.8-1.5-1.8-1.7 0-.8.8-.3 2.1 1.3zm169.3 5c1.7 3.4 2.1 6.3.8 6.3-2.2 0-4-3-4.5-7.2-.5-5.2.6-4.9 3.7.9zm-259.7-1c-.3 1-.5.4-.5-1.2 0-1.7.2-2.4.5-1.8.2.7.2 2.1 0 3zm94 1.5c-.3.8-.6.5-.6-.6-.1-1.1.2-1.7.5-1.3.3.3.4 1.2.1 1.9zm-99.7 3.3c0 2.4-.5 3.5-1.5 3.5-1.8 0-2-3.5-.2-5.5 1.7-2 1.7-1.9 1.7 2zm153.7.7c-.3.8-.6.5-.6-.6-.1-1.1.2-1.7.5-1.3.3.3.4 1.2.1 1.9zm144 0c-.3.8-.6.5-.6-.6-.1-1.1.2-1.7.5-1.3.3.3.4 1.2.1 1.9zm-314.3 11.9c.5 5.9.4 8.9-.3 9.4-.6.3-1.1.5-1.1.3-.1-.2-.3-5.3-.5-11.3-.6-12.8.9-11.6 1.9 1.6zm118.5-2.1c0 .8-1-.5-2.2-3-1.3-2.5-2.1-5.1-1.8-5.9.4-1.5 4 6.3 4 8.9zm53.4 2.2c.9 11.7.9 19.8-.2 19.8-1.2 0-2-6-.8-6.7.5-.3.6-2.4.2-4.7-1.3-8.3-1.7-16.6-.7-16.6.5 0 1.2 3.7 1.5 8.2zm115.9-1.5c1.6 3.8 4 7.8 5.1 9 1.1 1.3 1.8 2.6 1.4 2.9-.9.9-3.7-1.5-3.7-3.2 0-.7-1.5-2.5-3.4-3.9-3.3-2.5-5.5-8.2-4.1-10.5 1.1-1.7 1.5-1.2 4.7 5.7zm17.4 2.4c1.1 2.2 2.1 3 3.4 2.6 2.8-.7 4.1 1.4 2.4 3.7-1.1 1.5-1.7 1.7-2.6.8-.8-.8-1.5-.9-2.5-.1-2.2 1.9-3.9-.5-3.7-5.3.3-6.1.6-6.3 3-1.7zM444.2 556c2.2 5.2 4.5 10.2 5.2 11 .6.8-.1.5-1.6-.5-1.5-1.1-2.8-2.6-2.8-3.3 0-.7-.7-1.5-1.5-1.8-.8-.4-1.5-1.4-1.5-2.4 0-1.1-.4-2.1-1-2.5-.5-.3-.7-1.1-.4-1.8.2-.7-.2-3.2-1.1-5.6-.8-2.4-1.2-4.8-.8-5.5.5-.7.9-.4 1.1.9.2 1.1 2.2 6.3 4.4 11.5zm96.8 39.2c0 .4-.7.5-1.5.2-.8-.4-1.5-1.6-1.5-2.8.1-2.1.1-2.1 1.5-.2.8 1.1 1.5 2.3 1.5 2.8zm-148.5 11.9c1.1 1.7-.1 2.1-1.5.4-.8-.9-.8-1.5-.2-1.5.6 0 1.4.5 1.7 1.1zm85.5 31.4c0 .8-.2 1.5-.4 1.5s-.6-.7-1-1.5c-.3-.8-.1-1.5.4-1.5.6 0 1 .7 1 1.5zm-6.9 14.8c-1 .9-1.1.8-.5-.6.3-1 .9-1.5 1.2-1.2.3.3 0 1.1-.7 1.8zm-6.1 45.2c-.6.8-.9 2-.5 2.7.4.7 0 .4-.9-.6-1.7-2.1-1.3-3.6 1.1-3.6 1.2 0 1.3.3.3 1.5zM149.7 250.7c-6.8 10.5-11.7 18.3-11.7 18.9 0 .2-.9 1.4-2 2.6-2.3 2.5-2.6 5.4-.6 6.1 1.2.5 12 7.5 36.1 23.2 35.4 23.2 36.5 23.8 36.5 19.9 0-.8.4-1.4.9-1.4 1.1 0 19.1-27.9 19.1-29.4-.1-.6-3.2-3-7-5.3l-6.9-4.1-2.3 2.1c-1.3 1.2-3.4 4-4.7 6.2-1.4 2.2-2.6 4.1-2.7 4.3-.3.5-14.4-8.8-14.4-9.5 0-.7 2.2-4.7 2.9-5.3.4-.3 1.4-1.7 2.4-3.2l1.7-2.7-6.7-4.6c-3.7-2.5-7.3-4.5-8-4.5-.6 0-2.7 2.4-4.5 5.4l-3.4 5.4-2.5-1.9c-1.3-1-2.8-1.9-3.4-1.9-.5 0-2.2-1.1-3.7-2.3l-2.7-2.2 4-6.2 3.9-6.3-4-2.5c-2.2-1.4-4.4-2.5-5-2.5-.5 0-1-.4-1-.8s-1.3-1.5-2.9-2.5l-2.9-1.7-4.5 6.7zM773.5 268.1c-19.1 20.3-24.1 24.5-40.2 33.5-2.9 1.6-5.5 3.5-5.8 4.3-.5 1.2 5.5 12.8 9.1 17.6 1.4 1.9 1.6 1.9 2.8.2.7-.9 1.9-1.7 2.7-1.7 1.7 0 14.8-8.2 14.9-9.2.2-2.3 1.3-3.5 2.9-3.1 1.5.4 12.2-2.1 14.3-3.4.4-.2.2-1.3-.5-2.3-.9-1.6-.9-2.4.2-4.2.8-1.3 1.5-6 1.8-11.7.2-5.2.6-9.8 1-10.1.3-.3.3 5.4 0 12.6-.3 7.2-.2 13.5.1 14.2.5.7 4.7 0 13.7-2.4 7.2-1.9 14.1-3.7 15.5-4 4.1-.8 14.4-3.5 15.2-4 .4-.3-.6-2.6-2.2-5.2s-4.1-6.8-5.6-9.5c-1.5-2.6-3-4.7-3.3-4.7-.3 0-6 2-12.6 4.5-6.5 2.4-12 4.3-12.1 4.2-.1-.1 3.8-3.6 8.7-7.7 4.9-4.1 8.7-8 8.4-8.7-.2-.7.2-1 1.1-.6.7.3 1.4 0 1.4-.6s-.4-1.1-1-1.1c-.5 0-1-.8-1-1.8 0-.9-.9-2.8-2-4.2-1.1-1.4-2-2.8-2-3.3 0-1.4-4.5-7.7-5.5-7.7-.6 0-9.6 9.1-20 20.1z"/><path d="M452.6 280.5c-.3.8-.1 1.5.4 1.5 1.3 0 2.2-1.8 1.1-2.4-.5-.3-1.1.1-1.5.9zM448.3 283.5c-.3.9-.3 1.8 0 2.1.9.9 2.7-.6 2.7-2.2 0-1.9-1.9-1.8-2.7.1zM633.6 319.2c-3.5 4-5.3 5.3-7.4 5.3-3.9 0-3.3 2.1 1.3 4.5 4.5 2.3 5.5 2.5 5.5.9 0-.6 1.5-4.4 3.4-8.5s3.1-7.4 2.6-7.4-2.9 2.4-5.4 5.2zM811.2 425.2c-.5.7-3.3 6-6.2 11.8-2.9 5.8-5.3 10.6-5.4 10.7 0 .1-5.9 1.5-13 3.2-7 1.6-13.1 3.2-13.4 3.5-.3.4 3.6 4.8 8.6 10 6.3 6.4 9.2 10.1 9.2 11.7 0 1.2-.5 7.4-1.1 13.6-.7 6.2-1 11.6-.7 11.9.3.3 6.1-2.2 12.8-5.6l12.3-6.1 12.1 5.4c6.6 3 12.4 5.1 12.9 4.8.4-.4-.2-6.3-1.3-13.2-1.1-6.8-2-12.7-2-13.2 0-.4 4.1-5.3 9.1-10.8 5-5.5 8.9-10.2 8.6-10.5-.2-.3-6.4-1.6-13.7-2.9-7.3-1.3-13.3-2.5-13.5-2.7-.1-.2-3.2-5.4-6.9-11.6-3.7-6.1-6.9-11.2-7-11.2-.2 0-.8.6-1.4 1.2zM119.9 432.2c-1.3 2.9-2.7 5.5-3 5.8-.9.7-5.1 10-5.3 11.8-.3 1.5-3.3 4.2-4.9 4.2-.4 0-.5-.5-.2-1 1-1.6.3-1.4-21.4 3.6-2.2.5-2 .9 4.5 7.5 3.9 3.9 7.5 6.7 8.2 6.4.8-.3 1.2 0 .9.7-.2.7.5 2.3 1.6 3.5 1.9 2.1 1.9 2.7.8 13.6-.6 6.2-1.1 12.5-1.1 14v2.6l12.6-6 12.6-5.9 11.2 4.7c6.1 2.5 11.6 5 12.3 5.5 1.5 1.2 2.5-.5 1.9-3.4-.3-1.3-1.3-7.1-2.2-13.1l-1.6-10.7 3.8-4.3c12.5-14 14.3-16.1 14-16.5-.3-.2-6.3-1.4-13.6-2.7-7.2-1.2-13.2-2.4-13.4-2.6-.1-.2-3.3-5.5-7-11.7-3.7-6.1-7.1-11.2-7.5-11.2-.4 0-1.8 2.4-3.2 5.2zM103 455.5c-1.4.8-3.4 1.4-4.5 1.4-1.3 0-.7-.5 1.5-1.3 4.7-1.8 6.1-1.8 3-.1zm-5.5 11.4c.3.5.1 1.2-.5 1.6-.5.3-1-.1-1-.9 0-1.8.6-2.1 1.5-.7zM742 597.5c-1.7 3.8-2.8 7-2.6 7.3.3.2-.1 1.1-.9 1.9-1.8 1.8-1.9 5.7-.2 7 .6.6 5.5 2.9 10.7 5.3 13.4 6 46.9 21.4 56.9 26.1 4.7 2.2 8.8 3.6 9.3 3.1 1.2-1.2 14.8-31.1 14.8-32.5 0-.7-3.4-2.7-7.4-4.5-7.6-3.3-9.6-3.8-9.6-2.4 0 1.9 3.3 7.3 5.3 8.7 1.1.8 1.8 1.8 1.4 2.1-.4.4-2.3-1-4.3-3.1-3.5-3.7-3.7-3.8-5-2-.8 1-1.4 2.5-1.4 3.2 0 .7-.5 1.3-1.1 1.3-1.1 0-11.5-4.5-25.5-11.1-3.4-1.5-6.7-2.9-7.5-3.1-.8-.2-1.6-.6-1.9-1-.4-.5-17.3-8.4-26.7-12.5-.8-.3-2.4 1.9-4.3 6.2zm27.7 15.7c-.3.8-.6.5-.6-.6-.1-1.1.2-1.7.5-1.3.3.3.4 1.2.1 1.9zM756 613c0 .5-.5 1-1.1 1-.5 0-.7-.5-.4-1 .3-.6.8-1 1.1-1 .2 0 .4.4.4 1zM180.8 598.6c-2.7 1.3-4.8 2.9-4.8 3.5 0 .5.9 2.7 2 4.9 2.5 4.8 2.5 7.2.3 9.2-2.1 1.7-9.8 6-28.3 15.6-20.5 10.6-22 11.5-22 12.9 0 2.2 8.1 16.4 9 15.8.4-.3.6.4.3 1.5-.3 1.2 0 2 .7 2 2 0 10-4.9 10-6.1 0-.6.5-.7 1-.4.6.4 5.9-1.9 11.8-5 5.9-3.2 15.6-8.2 21.7-11.3 6-3 15.7-8.1 21.4-11.3 5.8-3.2 10.9-6 11.5-6.2.5-.2-.5-3-2.3-6.4-2.8-5.3-3.8-6.2-7.4-7.3-5.7-1.6-10.3-4.5-15.7-9.6l-4.5-4.2-4.7 2.4zm12.7 26.4c.3.5.1 1-.4 1-.6 0-1.1-.5-1.1-1 0-.6.2-1 .4-1 .3 0 .8.4 1.1 1zm-8.5.4c0 .3-.4.8-1 1.1-.5.3-1 .1-1-.4 0-.6.5-1.1 1-1.1.6 0 1 .2 1 .4zm-43.9 27.4c-.6 1.1-.7 2.2-.4 2.6.3.3.1.6-.5.6-.7 0-1.2-.2-1.2-.5 0-1 2.4-5.5 2.7-5.1.3.2 0 1.3-.6 2.4zM721.9 634.2c-.7 1.3-3.4 5.2-6.1 8.7-2.6 3.5-4.8 7-4.8 7.7 0 1.8 5.1 5.6 7 5.1 1-.3 1.5.4 1.6 2 .1 1.2-.1 2.3-.4 2.3-.3 0-2.9-1.3-5.8-3l-5.3-3-2.1 2.8-2.2 2.7 12.4 11.7c6.7 6.5 12.6 11.8 13 11.8.4 0 3.3 2.7 6.5 6 3.1 3.3 6 6 6.5 6 1.3 0 .9-2.2-.9-4.2-1.5-1.7-1.5-1.8 0-1.8 1 0 2.6.9 3.7 2s2.8 2 3.8 2c.9.1 2.8 1.6 4.2 3.5 1.4 1.9 5 6.3 8 9.7 4.1 4.6 4.7 5.6 2.3 3.8-1.8-1.2-3.4-2.9-3.7-3.7-.3-.7-1.2-1.3-2-1.3s-3.6-2-6.3-4.5c-2.6-2.4-5.4-4.5-6.1-4.5-1.8 0-.9 1.2 5.5 7.2 3.1 2.9 8.4 7.9 11.7 11.2l6 5.8 2.3-2.8c1.3-1.6 4.6-6.2 7.4-10.2l5.1-7.3-2.4-2.1c-1.2-1.1-3.8-3.3-5.7-4.9-3.3-2.7-3.4-3-2.1-5.4.7-1.4 1.7-2.5 2.1-2.5.4 0 3.6 1.6 7 3.7l6.2 3.6 2.4-2.9c1.2-1.6 2.3-3.2 2.3-3.6 0-.4 1.1-1.8 2.5-3.2 1.4-1.4 2.5-3.5 2.5-4.6 0-1.2.4-1.9.9-1.5 1.3.7 3.5-3.5 2.4-4.5-.4-.4-6.4-3.6-13.3-7.1-20.2-10.2-17.8-9.5-19.5-5.7-.9 2-1.4 2.6-1.5 1.5 0-1 .4-2.7 1-3.7.8-1.6-.1-2.3-7-5.9-4.4-2.3-8-3.8-8-3.4 0 .4-.4.3-.8-.3-.5-.9-19.6-11.1-28.4-15.2-.4-.2-1.2.7-1.9 2zm25.1 33.1c.8.4 2.2 1.1 3 1.6.8.6 3.6 2.2 6.2 3.6l4.7 2.6-2.2 3.5c-1.2 1.8-2.6 3.4-3 3.4-.5 0-.6-.4-.3-.9 1-1.5-.6-4.3-2-3.7-.8.3-1.4-.1-1.4-.8 0-.8-3.3-4.4-7.2-8.1-5.8-5.3-6.5-6.2-3.3-4.3 2.2 1.4 4.7 2.7 5.5 3.1zm-21.5 1.4l2.9 3.6-4.2-2.2c-2.8-1.4-4-2.6-3.6-3.6.9-2.1 1.5-1.8 4.9 2.2zm39.9-2.2c-.4.8-1 1.5-1.5 1.5-.4 0-.6-.7-.3-1.5.4-.8 1-1.5 1.5-1.5.4 0 .6.7.3 1.5zm14.6 5.2c-.1 2.4-.2 2.6-1.1 1-.5-.9-.7-2.2-.4-2.7 1-1.7 1.5-1.1 1.5 1.7zm-1 9c0 1.8-1.7 1.6-2.4-.3-.8-2.2.4-4 1.5-2.3.5.8.9 2 .9 2.6zm14 1.3c0 .5-.2 1-.4 1-.3 0-.8-.5-1.1-1-.3-.6-.1-1 .4-1 .6 0 1.1.4 1.1 1zM662.5 649.4c-6 6.8-11.8 12.6-12.9 12.9-1.2.4-1.6 1.1-1.3 2.1.4 1 .1 1.3-.9.9-.9-.3-1.4.1-1.4 1.4 0 1.7-7 10.3-8.5 10.3-.3 0-.5-.7-.5-1.5s.5-1.5 1.2-1.5c.6 0 .9-.3.6-.6-.9-.8-4.8 1.9-4.8 3.3 0 .7-.7 1.3-1.6 1.3-.9 0-4.6 2.2-8.3 4.9-3.6 2.7-10.2 7.1-14.6 9.8-5.3 3.3-8 5.5-7.9 6.7.2 1.3-.1 1.4-1.1.6-1-.8-2.7-.4-6.7 1.9-7.5 4.2-31.6 14.3-42.8 17.9-10.6 3.4-32.4 8.4-39.3 9.1-.5.1-.5 1-.2 2.1.7 2.3-1.3 2.8-2.1.5-.4-.8-1.7-1.5-3.1-1.5-1.6 0-2.3.4-1.9 1.2.3.7.9 2.1 1.2 3.1.4 1 1.3 1.6 2.3 1.3.9-.3 3.9-.8 6.6-1.1 7.6-.8 20-3.4 30-6.2 10.3-2.9 29.4-10 31.3-11.5.6-.6 1.2-.8 1.2-.5 0 1.8 32.1-15.1 41.5-21.8 2.8-1.9 7.4-5.2 10.3-7.2 3.2-2.2 5.1-4.2 4.8-5-.4-.8.3-1.3 1.9-1.3 1.3 0 3.2-1.1 4.3-2.5 1.1-1.4 2.4-2.5 2.9-2.5 1.3 0 22.8-20.6 29.7-28.4 5.7-6.5 5.8-6.7 4.1-8.6-1-1.1-2.1-2-2.4-2-.3 0-5.5 5.6-11.6 12.4zM212.5 645.9c-3.8 1.7-19.5 13.1-24.2 17.5-1.5 1.4-2 2.9-1.7 4.6.3 1.7-.3 3.5-2 5.5l-2.5 3 .5-4.4c.6-4.3.6-4.4-1.6-2.8-6.5 4.6-15.5 13.5-17.1 17.1-2.9 6.4-2.5 14 1 20.1 1.6 2.8 3.6 5.7 4.5 6.4 1.3 1.1 1.6.9 2.1-1.6.3-1.5 1-4.2 1.5-5.8.8-2.5.9-2.3.4 1.5-.3 2.5-.7 5.5-1 6.6-.4 1.5.2 2.9 1.8 4.4 4.3 4.1 8 5.4 14.9 5.5 6 0 7.1-.4 12.2-3.8 7.6-5 30.9-23.7 37.5-30.1 6.9-6.7 8.5-9.8 8.4-16.6-.1-7.6-3.3-14.3-10.1-21-7.8-7.9-16.2-9.9-24.6-6.1zm17.8 8.1c.3 1.1.1 2-.4 2s-.9-.9-.9-2 .2-2 .4-2 .6.9.9 2zm-1.4 11.4c.9 1.1 0 2.4-4.5 6.5-3.5 3.2-5.4 5.7-5 6.6.3.8.1 1.7-.3 2-.5.3-1.2-.2-1.5-1.1-.5-1.3-1.3-1-4.8 1.8-2.3 1.8-5.9 4.9-8 6.9-3.5 3.3-3.8 3.9-2.8 6.4.9 2.5.9 2.6-.5 1.5-.8-.7-1.5-1.9-1.5-2.6 0-1.5-1.6-1.9-2.2-.6-.1.4-3.3 3.2-7 6.2-3.8 2.9-6.8 6-6.8 6.8 0 .7-1.2 0-2.6-1.7l-2.6-3.1 3.1-2.6c1.7-1.4 3.1-3.3 3.1-4.2 0-1 .5-2.4 1.1-3.2.9-1.2 1-1.1.6.7-.3 1.3-.1 2.3.4 2.3s.9-.7.9-1.6c0-.8.4-1.2 1-.9.5.3 7.6-4.7 15.7-11.2 22.2-17.8 21.9-17.6 24.2-14.9zm-48.9 18c0 .5-.7.1-1.5-1-.8-1-1.4-2.4-1.4-2.9 0-.6.6-.1 1.4.9.8 1.1 1.5 2.4 1.5 3zm10.3 3.8c-.3 1.8-1 2.5-2 2.1-1-.4-1.2-1.4-.7-3.7.3-1.7.9-3.5 1.2-4 .9-1.5 2 2.8 1.5 5.6zm-7.6 26.5c-.3 1-.5.4-.5-1.2 0-1.7.2-2.4.5-1.8.2.7.2 2.1 0 3z"/><path d="M640.5 670c-1 1.1-1.3 2-.8 2 1.3 0 3.8-2.9 3.1-3.5-.3-.3-1.3.4-2.3 1.5zM682.5 684.7c-4.1 2.2-10.9 7.6-17.5 13.9-3 2.9-7.1 6.7-9 8.5-2.1 2-3 3.4-2.2 3.7.6.2 1.2.8 1.2 1.4 0 .5 6.9 8.5 15.3 17.6 8.3 9.2 17 18.7 19.3 21.2 4 4.5 17.1 18.7 20.5 22.4 1.7 1.8 2 1.7 10.3-6 4.7-4.3 8.6-8.3 8.6-8.9 0-.7-2.1-3.2-4.7-5.8-2.7-2.5-5.5-5.4-6.3-6.5-.8-1.1-4.5-5.2-8.2-9.1-6.6-6.9-6.7-7.1-4.6-8.2 2.1-1.1 3.2-.3 15.4 12.6l13.2 13.8 3.2-2.9c1.8-1.6 5.5-5 8.3-7.6l4.9-4.7-4.3-4.7c-4.8-5.2-16.5-17.8-18.9-20.2-2.4-2.5-7.7-4.2-10.9-3.6-3.1.7-4.4 3.4-1.6 3.4 1.8 0 1.8 0 .1 4.1l-1.4 3.3-.7-5.8c-.6-4.9-.5-6 .9-6.8 3.8-2.1.7-9.5-7.1-17.4-9-9-16.8-11.5-23.8-7.7zm6.9 9.9c.9 2.4.2 2.6-1.2.4-.7-1.1-.8-2-.3-2s1.2.7 1.5 1.6zm1.5 14.1c2.3 2.7 4.1 5.6 4.1 6.5 0 2.5 2.3 2.2 3.5-.4.6-1.2 1.6-2.4 2.4-2.6.8-.3-.8 2.4-3.5 5.9-5.4 7.1-16.7 18.9-18 18.9-.5 0 1.5-2.2 4.4-4.8 2.8-2.6 5.2-5.3 5.2-6 0-1.5-1.6-1.6-2.3-.2-.3.6-.4.5-.3-.2.1-.7 1.5-1.9 3-2.6 1.5-.8 3-2 3.3-2.8.3-.8-2-4.2-5.3-8-4.6-5.2-5.5-6.7-4.3-7.5 2.5-1.6 3.7-1 7.8 3.8zm14.6-.7c-1 1.1-2.1 1.8-2.3 1.5-.3-.3.3-1.2 1.4-2 2.7-2 3-1.8.9.5zm-38.5 2c0 .5-.4 1-1 1-.5 0-1-.5-1-1 0-.6.5-1 1-1 .6 0 1 .4 1 1zm50.2 14.2c-.7.7-1.2.8-1.2.2 0-1.4 1.2-2.6 1.9-1.9.2.3-.1 1.1-.7 1.7zm12.5 8c-.3.8-.6.5-.6-.6-.1-1.1.2-1.7.5-1.3.3.3.4 1.2.1 1.9zm-25.6 3.6c-.5.9-.7 3.1-.5 4.7.5 2.9.4 2.9-1.6-.8-2.3-4.1-2-5.7 1.1-5.7 1.6 0 1.8.4 1 1.8zm28.9.2c0 .5-.2 1-.4 1-.3 0-.8-.5-1.1-1-.3-.6-.1-1 .4-1 .6 0 1.1.4 1.1 1zm-30.3 10.2c-.3.8-.6.5-.6-.6-.1-1.1.2-1.7.5-1.3.3.3.4 1.2.1 1.9zm36 1c-.3.8-.6.5-.6-.6-.1-1.1.2-1.7.5-1.3.3.3.4 1.2.1 1.9zM699 747c0 .5-.4 1-1 1-.5 0-1-.5-1-1 0-.6.5-1 1-1 .6 0 1 .4 1 1zm22.9 7.3c0 2.1-.1 2.1-.9.2-1.2-2.8-1.2-3.7 0-3 .6.3 1 1.6.9 2.8zM260.5 695.9c-3.8 1.8-12.5 10-15.8 15-.9 1.3-3.2 4.2-5.1 6.5-16.7 19.5-19.8 24-21.5 31.7-1.1 4.9-.4 10.2 1.2 9.2.7-.4.8 0 .4 1.1-1.5 4 7.4 13.7 16.3 17.9 11.8 5.6 19.7 2.7 31.5-11.4C280.7 750 290 738.1 290 737c0-.5.4-1 .8-1 1.4 0 5.3-8.2 5.9-12.6.4-2.9 0-5.2-1.1-7.5-.9-1.7-1.6-3.8-1.6-4.4 0-2.3-9.2-11.6-13.9-14-6.7-3.4-14.6-4-19.6-1.6zm17.1 18.2c.7 1.2-1.4 4.1-17.7 24.4-17.2 21.4-19.3 23.7-21.3 22.9-2.7-1-1.8-3.7 3.2-10 8.5-10.5 9.3-12 8.6-15.1-.6-2.7-.6-2.7 1-.8 1 1.3 1.8 1.6 2.3 1 .5-.6 4.4-5.5 8.8-10.9s8.6-10.6 9.3-11.6c1.3-1.8 4.7-1.7 5.8.1zm5.7 5.9c.3 1.1.1 2-.4 2s-.9-.2-.9-.4-.3-1.1-.6-2c-.3-.9-.2-1.6.4-1.6.5 0 1.2.9 1.5 2zM223 751c-.6 1.1-1.3 2-1.6 2-.2 0 0-.9.6-2s1.3-2 1.6-2c.2 0 0 .9-.6 2zm9.5 17.1c1 3 0 3.3-1.3.4-.6-1.4-.7-2.5-.2-2.5.5 0 1.2.9 1.5 2.1zM338.2 699.7c.2 2.9.7 3.8 2.1 3.7.9-.1 1.7.2 1.7.7 0 1.3 10 6.1 11.6 5.5.8-.3 1.4 0 1.4.8 0 1 8.8 6 10.9 6.1.3.1 1.5.6 2.7 1.2 4.5 2.5 35.5 12.3 44.9 14.2 23.9 4.8 66.6 7.9 70 5.1.8-.7 1.5-.8 1.5-.4 0 .7 14.5.2 16.8-.5.1-.1.2-1.5.2-3.2 0-2.6-.3-3-1.7-2.4-3.7 1.4-38.1 1.8-50.9.5-37.2-3.6-74.9-14.9-103.4-31.1-3.8-2.1-7.2-3.9-7.5-3.9-.4 0-.5 1.7-.3 3.7z"/><path d="M339.3 717.7c.4 7.7.9 10 2.3 11 2.4 1.8 3.4 1.6 3.5-.5 0-1.3.2-1.2.9.5.5 1.2 2.7 3.1 5 4.3 4.2 2.1 6.3 2 5.4-.4-.3-.7.2-1.8.9-2.5 1.2-.9 1.5-.9 1.4.1-.2 5.2.4 6.6 3.5 7.9 1.7.7 4.1 1.2 5.2 1.1 1.1 0 2.4.5 3 1.2 2.5 3.1 32.1 11.2 51.1 14 2.2.4 6.5 1.1 9.5 1.7 7 1.3 56.6 2.4 65.5 1.4l6.7-.7-.7-7.6c-.4-4.3-.9-7.9-1-8.2-.2-.3-4.3-.2-9.2.2-9.6.9-31.8 1-37.9.3-2.2-.2-8.8-.9-14.9-1.6-6-.6-15-1.9-20-2.9-5.8-1.2-9.2-1.5-9.6-.8-.4.5-.9.3-1.2-.6-.4-.9-2.5-1.8-5.7-2.2-2.8-.4-5.3-1.1-5.6-1.5-.3-.5-1-.7-1.5-.4-.5.4-1.9-.1-3.1-.9-1.2-.9-3.2-1.6-4.3-1.6-1.2 0-2.5-.4-3.1-.8-.5-.5-4.5-2.1-8.9-3.6s-10.6-4-13.9-5.4c-5.7-2.5-5.9-2.5-7.3-.6-4.6 6.3-4.4 6.2-3.9 2.4.2-1.9.7-4.2 1-5 .5-1.1-1.1-2.4-5.9-4.8-3.6-1.7-6.8-3.2-7.2-3.2-.3 0-.3 4.4 0 9.7zM440 742.9c0 .6-.4 1.3-1 1.6-.5.3-1-.1-1-.9 0-.9.5-1.6 1-1.6.6 0 1 .4 1 .9zM636.5 720.6c-2.2 1.4-6.6 3.8-9.7 5.5-3.2 1.6-5.8 3.4-5.8 4 0 1.2 5 10.1 17 30.9 3.7 6.3 8.2 14.2 10 17.5 1.8 3.3 3.6 6.2 4 6.5 1.1.9 3.9 8.7 3.3 9.4-1.5 1.5-3.1.2-6.3-5.2-1.9-3.1-3.7-5.9-4-6.2-.3-.3-2-3.4-3.9-7s-3.9-7.2-4.5-8c-.6-.8-2.2-3.6-3.6-6.3-1.3-2.6-2.8-4.7-3.2-4.7-.5 0-.8-.5-.8-1.1 0-1.7-12.1-22.9-13.1-22.9-1.8 0-19.9 10.5-19.9 11.7 0 .6 2.5 5.6 5.6 11a6609 6609 0 0 1 13.3 23.3c13.9 24.4 17.2 29.3 22 31.9 11.8 6.5 31.4-.6 38.3-13.8 4.3-8.1 3.9-11.8-2.8-24.7-3.1-6-6.2-11.6-6.9-12.4-.7-.8-1.4-2-1.6-2.6-.8-2.2-22.4-39.4-22.9-39.4-.3 0-2.3 1.2-4.5 2.6zm4.5 80c0 .8-.5 1.2-1 .9-.6-.4-.8-1.1-.5-1.6.9-1.4 1.5-1.1 1.5.7zM313.3 731c-2.5 1.5-4.6 4.7-8.9 13.7-7.1 14.6-8 20.3-4 25 5.6 6.6 18 10.3 23.2 6.8 4.7-3.1 6.2-6.8 5.2-13.3-.5-3.5-.5-6.8 0-8.3.9-2.1 1-1.9 1.7 2.6.3 2.7.8 5.4 1 6 .6 1.9 7.8-15 7.9-18.6.1-5-3.8-9.8-10.7-13.2-6.6-3.2-11-3.4-15.4-.7zm8.2 19.7c-2.6 5.4-5.4 11.5-6.2 13.5-.8 2.1-1.9 3.8-2.3 3.8-2.4 0-1.6-3.1 3.6-14.3 6.7-14.1 7.3-15.2 8.7-13.8.6.6-.7 4.4-3.8 10.8zm9.3-2.2l.1 4-1.7-3.5c-1-1.9-1.6-4.8-1.4-6.3l.4-2.8 1.3 2.3c.6 1.3 1.2 4.2 1.3 6.3zM355.1 748.4c-1.7 1.8-3.1 3.7-3 4.2.1.5.1 1.6-.1 2.4-.1 1.2-.3 1.2-.8-.2-.6-1.4-1.5-1-5.4 2.8-2.6 2.5-5.2 5.9-5.7 7.7-.5 1.8-1 2.4-1 1.4-.1-2.4-.8-2.2-4.6 1.9-3.1 3.2-3.4 4-3.3 9.5l.1 6 5-4.8c8.3-8.1 14.2-14.5 14.3-15.7.1-.6.2-1.6.3-2.1.1-.6.6-.3 1.1.5.8 1.2 2.2.2 7.5-5.3 3.6-3.7 6.5-7 6.5-7.2 0-.8-6-3.6-6-2.8 0 .5-.4.2-.8-.4-.6-.9-1.7-.4-4.1 2.1zM580.5 749.5c-2.2.8-10.1 3.2-17.5 5.5-7.9 2.5-14.2 5-15.2 6.1-1 1.2-1.8 1.5-2 .7-.4-1.2-4.1-.6-6.7 1.1-1.2.8-1.2 1.6-.1 5.5 1.1 4 1.5 4.5 2.9 3.4 1.4-1.2 1.4-1.1.3.4-1.6 2-.7 7.7 1.3 8.4.7.3 3.4-.2 5.9-1 2.6-.9 5.1-1.6 5.6-1.6.8 0 6.5 16.4 16 47 2.9 9.1 5.6 16.9 6 17.4.9.9 18-4.2 18-5.4 0-.5.8-.6 1.9-.3 2.8.7 3.1-.7 1.3-7-1.2-3.9-2.1-5.6-3-5.2-.9.3-1.1-.1-.7-1.5.4-1.1-.3-5.3-1.5-9.3-1.8-6.1-12.4-38.8-13.7-42.4-.3-.7 1.8-1.9 5.2-2.9 3.2-1 5.9-2.4 6.2-3 .6-1.7-4-16.7-5.2-17-.6-.1-2.8.4-5 1.1zm-15.1 26.1c.3.8.2 1.2-.4.9-.6-.3-1-1-1-1.6 0-1.4.7-1.1 1.4.7zM520.9 765.4c-.4.4-8.1 1.5-11.2 1.5-1.7.1-1.9.9-1.7 6.8.3 9 .2 9.3-1.5 9.3-1.5 0-2.1-3.6-1.6-10.8.3-4-1-4.6-8.3-3.5l-5.5.8-.7 43.7c-.5 39.2-.4 43.9 1 44.4.8.3 5.1.1 9.3-.5 4.3-.7 9.2-1.3 10.8-1.4l3-.2.3-7.7c.3-7.4.4-7.8 2.8-8.4 1.4-.4 2.7-.4 2.9-.2.3.2 1.1 3.5 1.9 7.2.7 3.7 1.6 7 1.9 7.3.8.7 22.6-2.3 23.6-3.3.6-.6-2-10.6-8.7-33.9-3-10.5-7-24.7-8.8-31.7-4-14.9-5.9-19.8-7.7-19.8-.8 0-1.6.2-1.8.4zm4.2 18.7l-.9 3.4-.1-3.1c-.1-1.7.2-3.4.6-3.7 1.2-1.3 1.4.1.4 3.4zm-26.8 12.4c.2 3.3.2 4.5 0 2.7-.2-1.7-.8-3.2-1.4-3.2-.5 0-.9-1.9-.9-4.3.1-6.1 1.7-2.6 2.3 4.8zm19.1 22c.6 3.2.5 3.5-1.7 3.5-3.1 0-3.7-2.8-3.6-15.4l.1-9.1 2.3 8.8c1.3 4.8 2.6 10.3 2.9 12.2zM499 809c0 2.7 0 5.3.1 5.7 0 .4-.4.9-1 1.1-.7.2-1.1-1.8-1.1-5.7 0-3.4.4-6.1 1-6.1s1 2.2 1 5zm34.8 6.8c.2.7-.2 1-1.2.6-.9-.3-1.6-1.1-1.6-1.6 0-1.3 2.3-.5 2.8 1zM499.2 832c-.8 1.9-.9.9-.7-4 .1-3.6.4-6.7.5-7 .9-1.3 1 8.9.2 11zm.8 8.5c0 1.9-.2 3.5-.4 3.5s-.6-1.6-.8-3.5c-.2-1.9 0-3.5.4-3.5s.8 1.6.8 3.5zm-.3 9.2c-.3 1-.5.2-.5-1.7s.2-2.7.5-1.8c.2 1 .2 2.6 0 3.5zM418.6 768.2c-1.1 4.8-1.3 15.7-.3 15.1 1.1-.6 2.7 1.5 2.7 3.6 0 1.1-.4.9-1.4-.5-.8-1-1.7-1.6-2-1.3-.6.5-2.7 21.5-4.1 39.9-.2 3.6-.9 11.2-1.5 16.9-.6 5.7-.7 10.8-.2 11.3.4.4 5.2 1.1 10.5 1.5 9 .6 9.7.5 9.7-1.2 0-1.1.5-7 1.1-13.3.9-8.6.8-12 0-14-1-2-.9-2.7.1-3.3 1.5-1 2.6 2.6 5.9 20 1.2 6.4 2.7 12.1 3.3 12.7.6.7 5.5 1.5 10.9 1.8 9.3.7 9.7.6 9.8-1.3.1-1.2.2-2.4.3-2.9.1-.4.6-5.2 1-10.7.4-5.5.9-11.4 1.1-13 1.2-11.3 4.7-58.6 4.4-59-.3-.2-4.1-.7-8.4-1.1-11.5-.9-11.6-.8-12.9 15.4-.7 7.2-1.4 13.4-1.7 13.7-.3.2-2.1-6.1-3.9-14.1-1.9-8-3.8-15.1-4.4-15.9-.7-.8-4.6-1.5-10.3-2-9.1-.6-9.2-.6-9.7 1.7zm20.1 5c-.3.8-.6.5-.6-.6-.1-1.1.2-1.7.5-1.3.3.3.4 1.2.1 1.9zm17.3 26.3c.2.5 0 2.2-.4 3.7-.7 2.5-.9 4.2-1.4 13-.1 1.6-.6 2.8-1.1 2.8-1 0-.5-20.5.6-25 .6-2.3.7-2.3 1.3 1 .4 1.9.9 3.9 1 4.5zm2.5 31.3c.7 6.3.7 6.3-1.4 5-1.3-.8-2.1-2.3-2.1-4 0-3.1-1.6-3.8-2.3-1.1-.4 1.4-.5 1.3-.6-.3 0-1.2.6-2.4 1.4-2.8.8-.3 1.5-1.4 1.5-2.4 0-2.5 1.2-3.6 2.1-2 .4.7 1 4.1 1.4 7.6zm-33.7 1.7c-.5.5-9.8-3.9-9.8-4.7 0-.3 2.3.5 5.1 1.8 2.8 1.4 4.9 2.7 4.7 2.9zm33.9 9.7c-.3.8-.6.5-.6-.6-.1-1.1.2-1.7.5-1.3.3.3.4 1.2.1 1.9zm.3 9.4c0 1.3-.4 2.4-1 2.4-.5 0-1-1.4-1-3.1 0-1.7.4-2.8 1-2.4.6.3 1 1.7 1 3.1zM748.1 767.1c-1.9.7-2.2 1.2-1.3 2.1.7.7 1.2 1.6 1.2 2.2 0 .5-.6.1-1.4-.9-1.4-2-2.5-1.2-13.9 9.7-1.6 1.6-3 2.8-3.2 2.8-.4 0-25.6 18.9-29 21.7-1.1 1-2.2 1.7-2.5 1.6-1.5-.2-3 1.1-2.6 2.3.3.8 0 1.1-.8.8-.8-.3-1.6-.1-2 .4-.7 1.2.4 5.2 1.6 5.2 3.8 0 42.3-28.9 51.5-38.6 1.8-1.9 3.6-3.4 4.1-3.4 1.2 0 2.2-2.4 2.2-5.1 0-2.1-.4-2.2-3.9-.8zM308.6 793.9l-19.8 19.8 4.1 1.7c2.3.9 4.4 1.6 4.7 1.6.4 0 7.8-7.1 16.5-15.7l15.9-15.7v-5.2c0-2.9-.4-5.5-.8-5.8-.5-.3-9.7 8.4-20.6 19.3zM333.2 785c-1.6.7-2.3 1.7-2.2 3.2.3 3.6-.1 4.5-.9 1.8l-.7-2.5-1.8 3.3c-.9 1.8-1.4 3.7-1.1 4.2.3.6.1 1-.5 1-1.3 0-8.5 15-9.2 19.1-.3 1.6.4 4.6 1.6 7 1.7 3.7 3.2 5 8.6 7.7 7.1 3.5 11.9 3.8 16.4.8 2.7-1.7 12.7-21.3 13-25.2 0-1.3.4-2.4.8-2.4 1.5 0 1.3-4.7-.3-8-1.9-4-4.1-6.1-8.7-8.4-4.1-2.1-11.9-2.9-15-1.6zm-1.9 10c-.3 1.2-.8 1.9-1.1 1.6-.5-.6.5-3.6 1.2-3.6.2 0 .2.9-.1 2zm13.7.5c0 .3-.9 2.4-2.1 4.7-1.1 2.2-1.8 4.9-1.6 5.9.3 1.1 0 1.9-.6 1.9-.7 0-2.8 3.2-4.7 7-3.7 7.5-6.4 9.4-5.3 3.7.3-1.7 1-3.4 1.4-3.7.4-.3 2.9-4.9 5.4-10.3 2.7-5.8 5.1-9.7 6-9.7.8 0 1.5.2 1.5.5zM688.6 811.9c-.6.9-4.5 3.2-18.1 10.6-2.7 1.5-5.4 3.1-6 3.5-.5.5-3.5 2.2-6.5 3.8-3 1.7-5.5 3.7-5.5 4.6 0 .8-.4 1.8-.8 2.2-1.1 1.2-3.7 1.4-3.7.3 0-.5.5-.9 1.1-.9.5 0 .8-.4.4-.9-.3-.5-4.5.8-9.3 3-4.8 2.2-10.5 4.9-12.7 5.9-4.1 1.8-12.3 4.9-25.7 9.5-6.9 2.4-7.6 3-8 5.6-.3 1.6-.3 3.1-.1 3.3.6.5 26.4-8.1 27.5-9.2.4-.4.9-1.7 1.1-2.9.5-3.3 1.4-3.7 2.7-1.3 1.4 2.6 1.8 2.5 17-4.6 16.1-7.6 19.1-9.1 31-15.8 16.4-9.2 19.2-11.3 18.8-14.4-.3-2.6-2.2-4-3.2-2.3zM288.7 832.7c-1.4 1.3-.7 5.4 1.1 6 .9.4 1.9.9 2.2 1.3.8 1.1 27.9 12.7 38.2 16.4 37 13.3 75 21.5 113.3 24.5 9.4.7 11.2.6 12.3-.7 1.1-1.4 1.2-1.4 1.2.1s1.6 1.7 15.5 1.7H488v-6h-16.2c-24.8 0-50.7-2.6-74.1-7.6-3.7-.7-7.1-1.3-7.5-1.2-.4 0-1.4-.1-2.2-.5-.8-.3-6-1.5-11.5-2.7-10.5-2.3-39.8-11.8-55-17.8-4.9-1.9-13.9-5.9-19.9-8.8-11.2-5.6-11.8-5.8-12.9-4.7zM586 860.2c-.7 1.9-.9 2-.9.4-.1-1.3-.6-1.6-1.8-1.1-3.6 1.4-8.1 2.6-19.3 5.1-6.3 1.3-11.6 2.9-11.8 3.4-.2.5-.9.7-1.7.4-2.5-1-25.9 3.7-27.3 5.4-1 1.3-1.5 1.4-2 .4-.7-.9-3.1-1-11.6-.1-6 .6-12.6 1.1-14.7 1.2-4.5.2-5.3.9-4.4 3.8.7 2.1 1 2.2 11.8 1.5 6-.4 11.4-.9 11.9-1.2.5-.3 3.2-.7 6.1-.9 5.7-.4 7.5-.7 24.7-3.6 11.4-1.9 31.1-6.3 34-7.6 1.7-.8 2.8-1 5.3-1.2.9 0 1.7-.9 1.7-1.9 0-1.2.2-1.4.8-.4.6.9 1.6 1 3.4.3 2-.8 2.5-1.5 2.1-3.5-.7-3.4-4.9-3.6-6.3-.4z"/></svg>